<svg width="57" height="57" viewBox="0 0 57 57" fill="none" xmlns="http://www.w3.org/2000/svg">
<path d="M48.6757 33.3422C49.0224 31.7618 49.1976 30.1432 49.1976 28.4999C49.1976 26.8566 49.0227 25.238 48.6757 23.6576L49.2838 23.3064L53.231 21.0275L50.952 17.0806L48.6731 13.1337L46.3942 9.18658L42.4473 11.4655L41.8298 11.822C40.6587 10.7524 39.3763 9.80846 37.9924 8.99843C36.5454 8.15145 35.0273 7.47524 33.452 6.97438V6.27201V1.71423H28.8943H24.3367H19.779V6.2719V6.97426C18.2036 7.47513 16.686 8.15134 15.2388 8.99832C13.8548 9.80834 12.5724 10.7524 11.4014 11.8219L10.7839 11.4654L6.83666 9.18647L4.55777 13.1336L2.27889 17.0805L0 21.0275L3.94714 23.3064L4.55544 23.6577C4.20843 25.238 4.03353 26.8567 4.03353 28.4999C4.03353 30.1431 4.20843 31.7618 4.55544 33.3421L3.94714 33.6933L0 35.9721L2.27889 39.9193L4.55777 43.8662L6.83666 47.8131L10.7838 45.5342L11.4013 45.1776C12.5724 46.2473 13.8549 47.1912 15.2389 48.0012C16.686 48.8482 18.204 49.5244 19.7791 50.0253V50.7277V55.2853H24.3368H28.8944H33.4521V50.7278V50.0254C35.0274 49.5245 36.5452 48.8481 37.9925 48.0014C39.3763 47.1913 40.6589 46.2473 41.8299 45.1777L42.4474 45.5343L46.3943 47.8132L48.6732 43.8661L50.9521 39.9191L53.2311 35.972L49.284 33.6931L48.6757 33.3422Z" fill="#93C7EF"/>
<path d="M48.6757 33.3422C49.0225 31.7618 49.1976 30.1432 49.1976 28.4999C49.1976 26.8566 49.0227 25.238 48.6757 23.6576L49.2839 23.3064L53.231 21.0275L50.952 17.0806L48.6731 13.1337L46.3942 9.18658L42.4473 11.4655L41.8298 11.822C40.6587 10.7524 39.3763 9.80846 37.9924 8.99843C36.5454 8.15145 35.0273 7.47524 33.452 6.97438V6.27201V1.71423H28.8943H26.6154V55.2858H28.8943H33.452V50.7281V50.0257C35.0273 49.5249 36.5451 48.8484 37.9924 48.0017C39.3762 47.1917 40.6588 46.2476 41.8298 45.1781L42.4473 45.5347L46.3942 47.8135L48.6731 43.8664L50.952 39.9195L53.231 35.9723L49.2839 33.6935L48.6757 33.3422Z" fill="#78B9EB"/>
<path d="M26.6154 15.5865C19.495 15.5865 13.702 21.3795 13.702 28.4999C13.702 35.6204 19.495 41.4133 26.6154 41.4133C33.7359 41.4133 39.5289 35.6204 39.5289 28.4999C39.5289 21.3795 33.736 15.5865 26.6154 15.5865Z" fill="white"/>
<path d="M44.0866 29.459C36.9662 29.459 31.1732 35.2519 31.1732 42.3724C31.1732 49.493 36.9662 55.2858 44.0866 55.2858C51.207 55.2858 57 49.4929 57 42.3724C57 35.2519 51.207 29.459 44.0866 29.459Z" fill="#FFC170"/>
<path d="M44.0866 55.2858C51.207 55.2858 57 49.4929 57 42.3724C57 35.2519 51.207 29.459 44.0866 29.459" fill="#FF9811"/>
<path d="M43.0231 48.0258L38.3732 43.376L41.596 40.1532L43.0231 41.5802L47.4886 37.1147L50.7113 40.3375L43.0231 48.0258Z" fill="white"/>
</svg>
