<svg width="20" height="21" viewBox="0 0 20 21" fill="none" xmlns="http://www.w3.org/2000/svg">
<path d="M10.002 20.534C15.52 20.534 20 16.054 20 10.536C20 5.018 15.52 0.539001 10.002 0.539001C4.485 0.539001 0.00499725 5.018 0.00499725 10.536C0.00499725 16.054 4.485 20.534 10.002 20.534ZM10.002 12.534C9.588 12.534 9.252 12.198 9.252 11.784V6.284C9.252 5.87 9.588 5.534 10.002 5.534C10.416 5.534 10.752 5.87 10.752 6.284V11.784C10.752 12.198 10.416 12.534 10.002 12.534ZM10 15.534C9.448 15.534 9 15.086 9 14.534C9 13.982 9.448 13.534 10 13.534C10.552 13.534 11 13.982 11 14.534C11 15.086 10.552 15.534 10 15.534Z" fill="#003D9A"/>
</svg>
