<svg width="150" height="25" viewBox="0 0 150 25" fill="none" xmlns="http://www.w3.org/2000/svg">
<path fill-rule="evenodd" clip-rule="evenodd" d="M46.2284 0.835205H26.5009V24.744H45.8144V18.4453H33.5364V15.0655H44.0901V10.0301H33.1227V6.23639H46.2284V0.835205Z" fill="white" stroke="#2B2A29" stroke-width="0.2" stroke-miterlimit="22.9256"/>
<path fill-rule="evenodd" clip-rule="evenodd" d="M68.0251 0.835205H47.8839V6.23639H54.2987V24.744H61.4033V6.09848H68.0251V0.835205Z" fill="white" stroke="#2B2A29" stroke-width="0.2" stroke-miterlimit="22.9256"/>
<path fill-rule="evenodd" clip-rule="evenodd" d="M102.756 15.2386L99.9971 9.16876L97.583 15.2386H102.756ZM93.9272 24.744H86.8914L97.0311 0.835205H102.756L113.724 24.744H106.343L104.619 20.412H96.1345L93.9272 24.744Z" fill="white" stroke="#2B2A29" stroke-width="0.2" stroke-miterlimit="22.9256"/>
<path fill-rule="evenodd" clip-rule="evenodd" d="M138.257 7.31804C137.59 7.69736 136.969 8.36396 136.521 9.21489C136.072 10.0656 135.796 11.1 135.773 12.1233C135.75 13.1465 135.98 14.158 136.199 14.9858C136.417 15.8135 136.624 16.4574 137.004 16.9287C137.383 17.4001 137.934 17.6989 138.475 17.9173C139.015 18.1358 139.544 18.2737 140.222 18.1931C140.901 18.1126 141.728 17.8138 142.384 17.1355C143.039 16.4572 143.522 15.3997 143.717 14.25C143.913 13.1004 143.821 11.8589 143.579 10.8357C143.338 9.81241 142.947 9.0079 142.384 8.36423C141.82 7.7203 141.085 7.23723 140.36 7.04196C139.636 6.84644 138.923 6.93846 138.257 7.31804ZM141.659 0.835205C142.602 1.19888 143.545 1.5623 144.396 1.98567C145.246 2.40879 146.005 2.89186 146.766 3.52406C147.526 4.15626 148.289 4.9381 148.83 5.78877C149.37 6.63943 149.688 7.55919 149.858 8.93881C150.029 10.3184 150.052 12.1577 149.893 13.8131C149.734 15.4686 149.393 16.9402 148.898 18.1358C148.404 19.3314 147.756 20.2509 146.996 21.1247C146.235 21.9983 145.361 22.8261 144.625 23.3436C143.89 23.8608 143.292 24.0678 142.648 24.2495C142.004 24.4312 141.315 24.5876 140.625 24.744L141.659 0.835205ZM140.625 24.744H116.552V18.2737H128.554L120.828 12.1347L128.554 6.61649H116.69V0.835205H141.659L140.625 24.744Z" fill="white"/>
<path fill-rule="evenodd" clip-rule="evenodd" d="M6.622 24.744H1V0.835205H6.76018L12.3473 10.1954L17.762 0.835205H24.8666V24.744H18.0725V11.8508L12.5542 20.2316L6.622 11.9199V24.744Z" fill="white" stroke="#2B2A29" stroke-width="0.2" stroke-miterlimit="22.9256"/>
<path fill-rule="evenodd" clip-rule="evenodd" d="M79.3452 17.7125C79.7273 17.6851 80.1095 17.658 80.5939 17.6301C81.078 17.6019 81.6643 17.5733 82.2679 17.493C82.8714 17.4124 83.4924 17.28 84.1592 16.9726C84.8259 16.665 85.5386 16.1822 86.3061 15.6159C87.0734 15.0497 87.8956 14.4003 88.4246 13.7133C88.9533 13.0264 89.1889 12.3022 89.3644 11.2302C89.5396 10.1582 89.6546 8.73815 89.5915 7.7295C89.5281 6.72059 89.2864 6.12278 89.0278 5.61988C88.7692 5.11673 88.4931 4.70875 87.9931 4.18866C87.4931 3.6683 86.7689 3.03582 85.9816 2.51859C85.194 2.00136 84.343 1.59885 83.3532 1.33763C82.363 1.07614 81.2334 0.955712 80.1041 0.835269C78.9747 0.714825 69.767 0.835269 69.767 0.835269V24.7441H76.6646L76.5958 17.5965L79.3452 17.7125ZM76.6615 7.33427C76.6096 8.36299 76.6096 10.398 76.6386 11.4557C76.6672 12.5133 76.7246 12.5936 76.8166 12.657C76.9086 12.7201 77.0351 12.7662 77.5195 12.7811C78.0038 12.7957 78.8459 12.7792 79.5243 12.7391C80.2026 12.6987 80.717 12.6348 81.2444 12.4476C81.7718 12.2602 82.3119 11.95 82.6915 11.4786C83.0708 11.0073 83.289 10.3748 83.3466 9.79422C83.404 9.21364 83.3005 8.68496 83.1339 8.20214C82.9671 7.71907 82.7374 7.28239 82.3695 6.94322C82.0017 6.60405 81.4957 6.36263 80.9899 6.26486C80.4842 6.1671 79.9781 6.21324 79.438 6.22472C78.8975 6.23619 78.3227 6.21326 77.8975 6.21326C77.472 6.21326 77.1959 6.23619 77.0064 6.25914C76.8166 6.28208 76.7131 6.30529 76.6615 7.33427Z" fill="white"/>
<path fill-rule="evenodd" clip-rule="evenodd" d="M79.3452 17.7125C79.7273 17.6851 80.1095 17.658 80.5939 17.6301C81.078 17.6019 81.6643 17.5733 82.2679 17.493C82.8714 17.4124 83.4924 17.28 84.1592 16.9726C84.8259 16.665 85.5386 16.1822 86.3061 15.6159C87.0734 15.0497 87.8956 14.4003 88.4246 13.7133C88.9533 13.0264 89.1889 12.3022 89.3644 11.2302C89.5396 10.1582 89.6546 8.73815 89.5915 7.7295C89.5281 6.72059 89.2864 6.12278 89.0278 5.61989C88.7692 5.11673 88.4931 4.70875 87.9931 4.18866C87.4931 3.6683 86.7689 3.03582 85.9816 2.51859C85.194 2.00136 84.343 1.59885 83.3532 1.33763C82.363 1.07614 81.2334 0.955712 80.1041 0.835269C78.9747 0.714825 69.767 0.835269 69.767 0.835269V24.7441H76.6646L76.5958 17.5965L79.3452 17.7125V17.7125ZM76.6615 7.33427C76.6096 8.36299 76.6096 10.398 76.6386 11.4557C76.6672 12.5133 76.7246 12.5936 76.8166 12.657C76.9086 12.7201 77.0351 12.7662 77.5195 12.7811C78.0038 12.7957 78.8459 12.7792 79.5243 12.7391C80.2026 12.6987 80.717 12.6348 81.2444 12.4476C81.7718 12.2602 82.3119 11.95 82.6915 11.4786C83.0708 11.0073 83.289 10.3748 83.3466 9.79422C83.404 9.21364 83.3005 8.68496 83.1339 8.20214C82.9671 7.71907 82.7374 7.28239 82.3695 6.94322C82.0017 6.60405 81.4957 6.36263 80.9899 6.26486C80.4842 6.1671 79.9781 6.21324 79.438 6.22472C78.8975 6.23619 78.3227 6.21326 77.8975 6.21326C77.472 6.21326 77.1959 6.23619 77.0064 6.25914C76.8166 6.28208 76.7131 6.30529 76.6615 7.33427V7.33427Z" stroke="#2B2A29" stroke-width="0.2" stroke-miterlimit="22.9256"/>
</svg>
