<svg width="112" height="58" viewBox="0 0 112 58" fill="none" xmlns="http://www.w3.org/2000/svg">
<path fill-rule="evenodd" clip-rule="evenodd" d="M32.8594 56.5609V49.6566L37.4546 48.983L37.4712 55.4103C35.9371 55.5375 33.9571 56.0353 32.8595 56.5607L32.8594 56.5609ZM22.4828 52.5336C25.3347 52.2967 29.4508 50.8907 32.2829 50.232V56.5609L24.5361 53.9366C22.0456 52.9416 23.9646 54.5522 22.4828 52.5336V52.5336ZM2.30593 47.3552C3.694 47.4706 14.3008 50.6816 16.1416 51.9579L2.30593 47.3552ZM21.9062 49.6566L22.0783 49.828C22.067 49.8171 21.8492 49.7139 21.9062 49.6566ZM31.1302 45.0538C31.0619 48.1026 30.0241 48.0374 23.0594 49.6566C23.1621 49.5674 23.3216 49.2914 23.3682 49.3895L26.8947 47.1555C28.5935 46.2318 29.1735 45.5088 31.1302 45.0538ZM1.1531 48.506L13.6341 52.1595C14.8487 52.8467 14.5042 52.349 14.9887 53.6843C11.8284 52.171 2.86855 50.8427 1.1531 48.5061V48.506ZM32.283 43.9032H33.4361V46.78H32.283V43.9032ZM48.4244 45.6293C50.1775 45.4839 57.4551 43.3972 58.8011 42.7528V48.5061C57.194 48.4704 50.1145 46.6995 48.4244 45.6293V45.6293ZM34.0126 45.054C34.6263 44.4412 37.1465 45.902 34.9766 45.3576C34.9576 45.353 34.7718 45.3034 34.7421 45.2949C34.6718 45.2748 33.0131 46.0512 34.0126 45.054ZM59.3775 42.7528C60.7512 42.4329 62.2765 42.1459 63.4128 41.6019V47.9308C62.0557 48.2463 61.7103 48.467 59.9542 48.5061C59.9542 45.4447 59.4482 45.3057 59.3775 42.7528V42.7528ZM4.61186 47.3554C5.84363 45.6775 13.9721 42.5304 16.5192 41.3625C19.7735 39.8705 19.7325 40.904 23.3019 41.9339C25.6781 42.6196 28.4285 43.7265 30.5536 43.9032C30.4503 43.9929 30.2795 43.984 30.2292 44.1545L18.8489 50.6679C15.5395 52.0425 10.3781 47.4837 4.61199 47.3554H4.61186ZM34.5888 43.3277L34.7609 43.4993C34.7496 43.4883 34.5316 43.3852 34.5888 43.3277ZM36.3184 42.7528L36.4905 42.9239C36.4789 42.913 36.261 42.8097 36.3184 42.7528ZM29.9769 42.7528C30.5897 42.1409 32.1637 43.6657 30.6194 43.0516C30.6062 43.0463 29.0116 43.716 29.9769 42.7528ZM38.6242 42.1773C39.237 41.5654 40.8108 43.0903 39.2664 42.4761C39.2532 42.4708 37.6585 43.1409 38.6242 42.1773ZM28.2475 42.1773L28.4196 42.3484C28.4083 42.3375 28.1903 42.2343 28.2475 42.1773ZM40.3536 41.6019C40.9673 40.9894 43.4875 42.4499 41.3177 41.9056C40.7949 41.7744 39.3832 42.5703 40.3536 41.6019ZM26.5181 41.6019L26.6899 41.7734C26.6787 41.7621 26.4608 41.6589 26.5181 41.6019ZM42.6594 41.0264C43.2722 40.4149 44.8461 41.9397 43.3016 41.3255C43.2884 41.3202 41.6939 41.9903 42.6594 41.0264ZM24.212 41.0264C24.8248 40.4149 26.399 41.9397 24.8545 41.3255C24.8413 41.3202 23.2466 41.9903 24.212 41.0264ZM84.7618 41.6892L84.7426 35.8482C86.1403 35.5232 87.0558 35.2463 88.2016 34.6975V41.0264L84.7619 41.6892H84.7618ZM45.5418 40.4513L45.714 40.6227C45.7026 40.6118 45.4847 40.5085 45.5418 40.4513ZM27.0945 40.4513C27.3225 40.2235 30.2981 40.6917 28.1522 40.7655C26.9798 40.8058 26.2984 41.2458 27.0945 40.4513ZM22.4828 40.4513L22.6549 40.6227C22.6433 40.6118 22.4254 40.5085 22.4828 40.4513ZM37.4711 45.0541C38.8832 43.1306 49.4872 41.0601 52.3544 40.321C55.9857 39.385 54.3191 39.5995 57.648 39.8759C56.4867 41.458 50.1353 42.5968 47.727 43.2073C44.9248 43.9176 39.6568 46.1009 37.4711 45.0541V45.0541ZM47.2713 39.8759C47.8841 39.2643 49.458 40.789 47.9135 40.1747C47.9003 40.1695 46.3058 40.8392 47.2713 39.8759ZM29.4005 39.8759C29.6284 39.6481 32.6041 40.1164 30.4581 40.1902C30.4568 40.1903 30.372 40.1812 30.3647 40.1795C29.8416 40.0485 28.4302 40.8439 29.4003 39.8758L29.4005 39.8759ZM20.7534 39.8759L20.9255 40.0473C20.9139 40.0361 20.6959 39.9331 20.7534 39.8759ZM49.5773 39.3006L49.7492 39.4721C49.738 39.4609 49.5199 39.3576 49.5773 39.3006ZM83.5895 36.4236V41.602C80.4496 41.3413 77.277 39.5902 73.7893 39.3006C73.9047 39.2203 74.0951 38.9768 74.1525 39.0879L78.3964 37.5695C80.3721 37.0251 81.2093 36.4768 83.5895 36.4236V36.4236ZM58.8008 38.7251L58.9729 38.8966C58.9616 38.8854 58.7436 38.7824 58.8008 38.7251ZM52.4594 38.7251L52.6315 38.8966C52.6203 38.8854 52.4023 38.7824 52.4594 38.7251ZM59.9539 38.1496C60.5676 37.5372 63.0878 38.9979 60.9179 38.4536C60.3952 38.3223 58.9835 39.1183 59.9539 38.1496ZM53.6125 38.1496C54.2252 37.5385 55.7992 39.063 54.2545 38.4489C54.2415 38.4435 52.6471 39.1133 53.6125 38.1496V38.1496ZM55.9184 37.5746C56.5312 36.963 58.1051 38.4876 56.5605 37.8734C56.5474 37.8681 54.953 38.5381 55.9184 37.5746ZM38.0476 37.5746C38.2755 37.3471 41.2512 37.815 39.1052 37.8888C39.1038 37.889 39.0191 37.8799 39.0116 37.8782C38.4889 37.7468 37.0772 38.5426 38.0476 37.5745V37.5746ZM25.365 39.3007C26.1608 38.7965 29.3227 37.5746 33.4357 37.5746L32.7083 37.9994C32.5953 38.0505 32.0789 38.2973 31.9144 38.3591C29.6339 39.2137 27.3776 39.726 25.3648 39.3006L25.365 39.3007ZM58.8007 36.9991L58.9728 37.1706C58.9614 37.1593 58.7435 37.0565 58.8007 36.9991ZM62.2597 35.8484C62.8723 35.2368 64.4463 36.7614 62.9018 36.1474C62.8886 36.1422 61.294 36.8121 62.2597 35.8484ZM39.2004 35.8484C39.2004 34.3767 40.113 35.756 39.5431 35.8484C39.5362 35.8497 39.2004 37.4546 39.2004 35.8484ZM40.9298 35.2731C40.7331 34.2361 41.604 33.1846 41.3012 34.9022C41.2749 35.0509 41.297 37.2078 40.9298 35.2731ZM66.8714 34.6976C67.4842 34.0862 69.0581 35.6109 67.5135 34.9967C67.5003 34.9914 65.9058 35.6614 66.8714 34.6976ZM107.225 35.2731V29.5192C108.782 29.3901 108.793 29.2496 110.107 28.944V34.6975C109.012 34.7885 108.089 34.9385 107.225 35.273V35.2731ZM69.1773 34.1223L69.3495 34.2938C69.3381 34.2826 69.1199 34.1796 69.1773 34.1223ZM51.883 34.1223L54.7654 33.5469C56.1817 34.5565 54.4479 34.6976 51.883 34.6976V34.1223V34.1223ZM63.9891 36.9991C67.3192 36.9252 77.6733 32.9718 81.2835 32.9718C82.1263 32.9718 82.1291 33.6809 82.4364 34.1223C79.3415 34.3792 75.7784 35.7739 72.7591 36.5463C64.1952 38.7372 64.7129 39.7048 63.9891 36.999V36.9991ZM72.0597 33.5469L72.2319 33.7184C72.2205 33.7072 72.0026 33.6042 72.0597 33.5469ZM73.2127 32.9717C73.8255 32.3601 75.3994 33.8847 73.8549 33.2705C73.8417 33.2651 72.2472 33.9352 73.2127 32.9717ZM106.072 30.0947V35.2731C103.22 35.0362 99.1043 33.63 96.2717 32.9717L101 31.361C102.887 30.8551 104.313 30.5037 106.072 30.0947H106.072ZM75.5186 32.3962L75.6908 32.5677C75.6794 32.5565 75.4615 32.4535 75.5186 32.3962ZM57.0713 32.3962L57.2432 32.5677C57.232 32.5565 57.0141 32.4535 57.0713 32.3962ZM51.3067 32.3962C51.9204 31.7836 54.4405 33.2441 52.2707 32.6999C52.2517 32.6952 52.066 32.6456 52.0361 32.6371C51.966 32.6173 50.3075 33.3934 51.3067 32.3962ZM84.166 31.8209C84.7788 31.2091 86.3527 32.734 84.8081 32.1198C84.795 32.1145 83.2006 32.7842 84.166 31.8209ZM77.8248 31.8209C78.4375 31.2091 80.0114 32.734 78.4669 32.1198C78.4537 32.1145 76.8592 32.7842 77.8248 31.8209ZM85.8955 31.2454L86.0676 31.417C86.0562 31.4057 85.8383 31.3025 85.8955 31.2454ZM80.1308 31.2454C80.7435 30.6336 82.3174 32.1585 80.7729 31.5443C80.7597 31.539 79.1651 32.2091 80.1308 31.2454ZM58.8009 30.0947V31.8209H57.0715C57.5204 30.1431 57.0768 30.5067 58.8009 30.0947ZM55.9185 31.2454L56.0906 31.417C56.079 31.4057 55.8611 31.3025 55.9185 31.2454ZM46.6949 31.2454C46.7246 31.1638 49.2156 30.0244 47.3812 31.189C47.3758 31.1926 46.1125 32.8458 46.6949 31.2454ZM38.6242 29.5192H39.7771V33.5469C38.9737 32.393 39.8138 34.6874 38.976 32.045C38.5301 30.6385 38.6697 31.171 38.6242 29.5192ZM65.7186 30.6701C66.3314 30.0586 67.9056 31.583 66.3611 30.9693C66.3479 30.9638 64.7532 31.6337 65.7186 30.6701ZM48.4242 30.6701L48.5964 30.8416C48.585 30.8303 48.3671 30.7271 48.4242 30.6701ZM40.3536 32.9717V29.5192L44.3625 28.2881C44.3891 31.1302 44.8621 30.1586 43.5179 31.5269C42.7332 32.3259 41.4812 32.7093 40.3536 32.9718V32.9717ZM84.1661 30.0947C84.7789 29.4831 86.3529 31.008 84.8082 30.3938C84.7952 30.3885 83.2008 31.0585 84.1661 30.0947ZM68.0245 30.0947C68.6373 29.4831 70.2115 31.008 68.667 30.3938C68.6538 30.3885 67.0591 31.0585 68.0245 30.0947ZM86.4719 29.5192C87.0847 28.9077 88.6587 30.4325 87.1142 29.8184C87.101 29.8132 85.5064 30.4829 86.4719 29.5192ZM70.3306 29.5192L70.5024 29.6908C70.4912 29.6798 70.2733 29.5767 70.3306 29.5192ZM45.5418 27.7934H47.8478V30.0948H45.5418V27.7934ZM48.4242 27.218C50.1957 28.5133 49.3544 26.8474 49.5773 29.5192H48.4242V27.218ZM31.13 27.7934L36.6668 29.1715C37.9455 29.82 37.5634 29.3348 38.0477 30.6702C36.0501 31.4938 33.9759 29.7556 31.13 29.5193V27.7935V27.7934ZM91.0837 28.3687C91.6964 27.7573 93.2704 29.2818 91.7259 28.6676C91.7127 28.6626 90.1181 29.3324 91.0837 28.3687ZM74.3658 28.3687C74.5938 28.1412 77.5695 28.6089 75.4237 28.683L75.0956 28.6097C75.0255 28.5896 73.3666 29.366 74.3658 28.3687V28.3687ZM65.1422 30.0948C65.7305 28.6399 64.9371 29.6332 66.2463 28.8956C66.9905 28.4763 67.0783 28.5888 68.0244 28.3689C66.5995 30.3103 67.4017 28.9769 65.1422 30.095V30.0948ZM59.3773 28.3687L59.5494 28.5403C59.5381 28.529 59.3201 28.4258 59.3773 28.3687ZM93.3897 27.7934L93.5616 27.9648C93.5504 27.9539 93.3323 27.8506 93.3897 27.7934ZM80.707 26.6426C80.707 23.253 80.5506 23.6931 82.4366 23.1903C81.0551 25.7961 81.4919 25.5437 81.3192 28.0836C81.3159 28.1311 81.3245 28.282 81.2836 28.3687C80.8885 27.6666 80.707 27.7533 80.707 26.6426ZM16.1415 53.6846V52.5341C27.6387 49.8606 40.2385 45.9204 51.6556 43.101L111.261 27.218C110.789 27.6266 111.07 27.53 110.242 27.9275C109.465 28.3002 110.075 28.0666 108.984 28.3976L64.107 40.5691C52.0532 43.8468 27.9695 50.9342 16.1414 53.6847L16.1415 53.6846ZM88.2015 30.6702C93.7447 30.2099 97.4464 27.218 105.496 27.218L92.2273 31.2959C90.094 31.8515 89.5393 32.4931 88.2015 30.6701V30.6702ZM95.6957 27.218L95.8675 27.3894C95.8563 27.3785 95.6382 27.2752 95.6957 27.218ZM78.9775 27.218C79.5903 26.6064 81.1645 28.1311 79.6198 27.5171C79.6067 27.5118 78.012 28.1815 78.9775 27.218ZM70.3304 27.7934C72.0265 27.3989 72.0899 27.218 74.3657 27.218C71.4677 29.2279 70.7426 28.0639 70.3304 27.7934ZM43.8124 27.218L43.9845 27.3894C43.9732 27.3785 43.7552 27.2752 43.8124 27.218ZM97.4251 26.6426C98.0379 26.031 99.6118 27.5557 98.0672 26.9415C98.0541 26.9362 96.4597 27.6062 97.4251 26.6426ZM45.5418 26.6426C46.1546 26.031 47.7286 27.5557 46.1841 26.9415C46.171 26.9362 44.5763 27.6062 45.5418 26.6426ZM89.9307 26.0671L90.1028 26.239C90.0915 26.2278 89.8735 26.1245 89.9307 26.0671ZM87.0483 26.0671C87.0483 24.5956 87.9611 25.9748 87.391 26.0671C87.3841 26.0685 87.0483 27.6736 87.0483 26.0671ZM79.5542 25.4918V26.6426H77.8247C78.7335 25.3374 77.9334 25.9703 79.5542 25.4918ZM48.4241 22.0399H49.0007V26.6426H48.4241V22.0399V22.0399ZM110.108 23.7657H110.684V26.0671H110.108V23.7657ZM102.037 25.4918L102.209 25.6633C102.198 25.6524 101.979 25.5491 102.037 25.4918ZM75.5188 25.4918L75.6909 25.6633C75.6796 25.6524 75.4616 25.5491 75.5188 25.4918ZM72.6364 25.4918L72.8085 25.6633C72.7972 25.6524 72.5792 25.5491 72.6364 25.4918ZM104.343 24.9165L104.515 25.0881C104.504 25.0768 104.286 24.9736 104.343 24.9165ZM45.5418 23.1903H46.6949V25.4918H45.5418V23.1903ZM92.8132 24.3412L92.9854 24.5126C92.9738 24.5014 92.7558 24.3984 92.8132 24.3412ZM43.8124 23.7657L43.0191 25.7081L40.9301 24.9165C42.1573 23.245 40.8497 23.8317 43.8125 23.7657H43.8124ZM38.6242 27.218C35.3199 27.218 34.5013 26.2996 31.7065 26.0671C31.7065 21.8011 32.2162 22.285 33.5323 22.4316C35.3781 22.6368 36.9403 23.5782 39.2007 23.7657C38.8841 25.1217 38.6726 25.4656 38.6242 27.218ZM84.7425 23.1903L84.9146 23.3619C84.9033 23.3507 84.6851 23.2476 84.7425 23.1903ZM100.884 22.0399C101.497 21.4283 103.071 22.9528 101.526 22.3387C101.513 22.3334 99.9182 23.0034 100.884 22.0399ZM91.0837 22.0399L91.2558 22.2113C91.2444 22.2001 91.0265 22.097 91.0837 22.0399ZM87.3077 24.4275C87.1143 21.3844 86.5265 22.6891 88.2015 21.4644L87.3077 24.4275ZM93.3191 22.5927C93.3138 22.4998 93.1735 22.2023 93.1562 22.2744L93.3191 22.5927ZM106.072 20.3136L103.766 17.4368C106.032 17.3866 105.119 17.5942 106.649 16.8614V1.90205C96.276 -0.510081 96.9393 -0.71443 86.3566 1.78703C79.4417 3.4213 72.9342 4.54621 65.9456 6.15623C62.4784 6.95492 41.8535 10.7635 40.5219 11.8515C39.3418 12.8154 39.7493 13.3868 37.6269 15.2908C36.6302 16.1845 37.1462 15.8223 35.9873 16.5314L33.6962 17.6967C32.1627 18.6924 31.8789 19.9691 31.7065 22.0399C26.1428 20.746 29.9769 24.2439 29.9769 27.218V35.2731C27.7741 36.3279 23.9424 36.4036 22.0001 37.6684L7.87076 44.2794C4.56803 45.8675 3.95828 46.4351 0 47.3557C0.283555 50.7565 2.24586 50.3069 8.72076 52.4606C10.5018 53.0531 12.302 53.7543 13.9094 54.2395C17.3065 55.2649 16.4487 53.6846 19.6003 53.6846C23.8887 53.6846 28.6592 57.1369 32.8594 57.1369C34.3017 57.1369 36.6476 56.3119 38.0478 55.9864V48.5064C41.46 47.7131 45.415 45.8167 48.4945 46.6619C66.4479 51.5894 55.9272 49.2239 64.566 48.5064V41.0267C71.1911 40.8795 66.2706 38.1132 76.4385 40.6833C89.533 43.9933 81.3606 42.2182 88.778 41.6022V34.6976C95.878 33.0469 93.4351 33.0369 102.499 35.3936C107.252 36.6293 105.87 36.3924 110.684 35.2731C110.684 22.3202 116.473 23.8434 103.766 20.889C104.503 20.4608 103.866 20.7997 104.708 20.5939C105.155 20.4846 104.815 20.8318 106.072 20.3135L106.072 20.3136ZM98.5781 19.7384H102.613V20.8891C101.067 21.2583 101.527 21.4644 100.307 21.4644C98.2325 21.4644 99.2058 20.9306 98.5779 19.7385L98.5781 19.7384ZM96.272 20.3136L96.4441 20.4852C96.4328 20.474 96.215 20.3709 96.272 20.3136ZM48.4242 18.5874L49.0714 20.8665L47.8478 20.8891C47.8478 20.5687 47.8364 19.9499 47.8862 19.777C48.2037 18.6767 47.9679 19.2156 48.4242 18.5874ZM41.5066 22.0399V20.8891C44.4039 20.8891 44.0879 20.3716 46.6951 20.3136L44.4315 21.5068C43.3682 21.8231 42.7654 21.9354 41.5066 22.0399ZM32.8594 19.1629C35.2327 19.3601 38.0777 20.3597 40.3536 20.8891V22.6152C38.3852 22.5711 37.8436 22.3053 35.9253 21.8565C32.987 21.1692 33.2278 22.0305 32.8592 19.163L32.8594 19.1629ZM103.766 19.1629C103.766 17.6912 104.679 19.0705 104.109 19.1629C104.102 19.1639 103.766 20.7691 103.766 19.1629ZM45.542 17.4368C44.926 18.9603 46.7277 18.5099 43.236 18.5873C43.8207 18.1821 43.037 18.5661 44.3226 17.9459C44.4719 17.8738 45.2637 17.5745 45.542 17.4368V17.4368ZM47.2714 16.8614L47.8777 16.9261C48.0606 17.0245 48.8566 15.2117 48.2359 17.2587C47.7377 18.9012 49.2488 17.6568 48.0115 17.3522C47.7492 17.2876 47.0248 17.9534 47.2714 16.8613V16.8614ZM36.8949 17.4368C38.8316 14.55 41.3106 14.3365 44.3891 16.2861C42.4972 16.726 42.5209 17.2058 41.1095 17.6253C39.1991 18.1931 39.268 17.4896 36.8949 17.4368V17.4368ZM40.9301 12.8337C45.046 12.8337 46.934 14.4755 50.7303 14.56L50.1537 29.5192C50.1537 23.0169 49.001 19.1853 49.001 15.1353C42.7539 15.1353 44.8854 14.8884 40.9302 14.56V12.8337H40.9301ZM105.496 16.2861L51.3068 29.5192V14.56C53.6324 14.5082 55.6801 13.7762 58.0809 13.266C59.8778 12.8843 62.8106 12.237 64.6807 11.7976C69.3688 10.697 73.8669 9.87997 78.4012 8.80644C81.6189 8.04451 102.895 3.05265 106.072 3.05265C106.072 8.32383 105.496 11.3038 105.496 16.2861V16.2861ZM42.6596 12.2588V11.6833C46.3875 11.6833 93.3636 0.751322 95.6958 0.751322L103.766 2.47742L58.3399 12.3738C44.8366 15.5593 49.7126 12.2588 42.6596 12.2588Z" fill="#003D9A"/>
</svg>
