<svg width="112" height="35" viewBox="0 0 112 35" fill="none" xmlns="http://www.w3.org/2000/svg">
<path fill-rule="evenodd" clip-rule="evenodd" d="M54.5347 33.3573H58.6393V33.9439H54.5347V33.3573ZM58.0531 31.5983V27.4937C61.7952 27.4102 64.3774 25.7343 68.6082 25.7343V29.2527C65.7947 29.9084 60.6988 31.3781 58.0531 31.5983ZM55.7075 28.0799H57.4665V31.5983H56.2937C56.2641 30.2685 56.1127 28.9878 55.7071 28.0799H55.7075ZM44.5662 28.0799V25.7343C48.2416 25.8162 51.4459 27.4118 55.1213 27.4937V31.5983C53.0019 31.4221 51.495 30.7827 49.3057 30.3772C47.2026 29.9876 44.5662 30.3068 44.5662 28.0799ZM104.964 22.216L105.139 22.3906C105.128 22.3794 104.906 22.2739 104.964 22.216ZM103.792 22.216L103.967 22.3906C103.955 22.3794 103.733 22.2739 103.792 22.216ZM12.9011 19.2842C16.6341 19.3673 38.4009 25.1481 43.98 25.1481V29.2527C40.8999 29.184 16.3476 23.6053 12.9011 22.8021V19.2838V19.2842ZM69.1948 29.2527V25.1481C73.0704 24.8257 95.8094 19.0204 99.6871 18.6976V22.216C98.5263 22.773 93.9602 23.6776 92.1864 24.0972L69.1948 29.2523V29.2527ZM3.51918 17.5252C6.94166 17.5252 8.57318 18.6276 11.7287 18.698V22.2164C8.57318 22.146 6.94166 21.0436 3.51918 21.0436V17.5252ZM100.86 21.6298V18.1114C104.015 18.041 105.647 16.9386 109.069 16.9386C109.069 20.7063 109.14 20.1717 105.936 20.8418C104.087 21.2286 102.605 21.5906 100.86 21.6294V21.6298ZM5.86437 15.1792V16.352H4.10538C5.02963 15.0218 4.21606 15.6667 5.86437 15.1792ZM106.723 14.593C107.71 15.0825 107.754 15.1324 108.482 15.7658C104.857 15.4569 107.553 15.5288 106.723 14.593ZM23.4559 7.55623L23.6309 7.73125C23.6193 7.71966 23.3975 7.61457 23.4559 7.55623ZM25.2153 5.80004C26.5207 7.07513 25.8778 5.27698 26.3881 8.14243L24.9467 8.24792L25.2153 6.97003C23.702 6.46815 24.6586 7.63455 24.6087 6.46935C24.5563 5.24021 24.5603 6.14089 25.2153 5.80004ZM17.7897 0.519471C17.283 2.4307 18.1717 1.31026 16.4195 2.08146L14.0711 1.69266L14.6605 2.08426L16.4195 1.88966C19.05 1.83811 17.8632 1.59476 20.2296 2.86506C20.1581 2.95057 20.013 3.02729 19.9495 3.04687C19.8808 3.06805 19.7145 3.17514 19.6206 3.19632C19.5075 3.22149 19.3329 3.27464 19.1971 3.29422L16.4227 3.25386C19.4524 4.62645 17.9591 2.78314 18.0814 5.21064L18.1785 5.79724L19.9759 4.79188C20.0598 4.56251 20.3331 4.65282 20.5213 4.62764C20.5497 4.77909 20.5369 4.99087 20.5381 5.08877L20.5241 7.55663C24.6379 7.55663 21.9155 7.45753 22.351 8.14323C22.351 9.49584 22.0333 9.11862 23.4559 9.11862L24.6287 8.47049C27.7746 9.90262 25.3603 8.44692 26.3877 11.6616C29.4353 11.6616 32.3635 10.741 35.5127 10.2027C40.5875 9.3356 40.0037 11.075 44.5658 11.075V11.6616C39.4274 11.6616 34.4298 13.7898 30.5042 13.4286C28.1403 13.2108 27.7527 12.5343 26.3877 12.3157C26.2186 12.4388 25.9653 12.5946 25.8954 12.7057C25.8518 12.7749 25.9217 13.1705 25.8954 13.0957C25.853 12.9755 26.2186 13.3627 26.3877 13.4857C32.1621 15.8897 41.457 12.213 48.0841 11.6616C46.7639 9.85946 48.2715 10.8768 45.4201 10.2211C44.5622 10.0237 44.0691 10.0377 43.4082 9.88743L41.634 9.31602C45.2802 8.4665 51.7152 6.95445 55.0594 7.66172L56.9534 7.64254C60.5321 6.80141 68.2634 8.67948 73.1272 9.48784C76.604 10.0656 101.529 13.039 103.973 14.9978C104.068 15.0737 104.183 15.2056 104.274 15.2831L105.55 16.3524C102.387 16.3524 61.8708 25.4314 58.0527 26.3209C58.0115 26.2462 57.9772 26.0168 57.9636 26.0812C57.9588 26.1047 57.8213 25.3699 56.2933 24.5619L55.218 26.0904C55.2024 26.1195 55.1609 26.2482 55.1205 26.3213L19.4975 19.1379C16.4143 18.5214 10.506 16.939 7.03676 16.939L8.7454 14.8703C8.75739 14.8327 8.75579 14.6781 8.79575 14.5934H10.7525C10.9372 14.2026 11.1689 12.4764 11.1413 14.004C8.70065 13.7802 1.51284 15.0401 0 15.7662C1.32024 17.5679 -0.377612 16.7124 2.34559 16.939V21.0436L4.73353 22.7638C5.97306 24.0289 4.02746 24.0285 7.56901 24.0349C11.3144 24.0417 10.0065 22.9816 14.6174 24.0021L51.9689 31.8181C54.3381 32.9481 52.7218 31.9751 53.9477 34.5305H59.2251C60.4558 31.8692 57.6415 32.2924 62.6148 31.4976C72.1062 29.9812 92.6915 24.1276 99.9296 23.0079C101.874 22.707 104.38 23.3891 107.309 23.3891C108.464 20.8917 107.298 21.8691 110.241 20.4574C110.241 13.5712 110.951 18.5194 112 14.5934L58.1186 6.26995C54.5203 5.68136 29.9744 10.2391 26.3869 11.075V8.14323H27.5597V5.79764C23.6748 4.76031 27.2859 2.60413 25.248 0.446346C24.2606 -0.599379 20.2428 0.52027 17.7885 0.52027L17.7897 0.519471Z" fill="#003D9A"/>
<path fill-rule="evenodd" clip-rule="evenodd" d="M14.0739 15.7658C14.3504 15.4893 17.3973 16.0847 15.1312 16.0807C14.0583 16.0787 13.2224 16.6173 14.0739 15.7658ZM23.4563 15.7658H21.1107C22.2072 15.0701 19.8012 15.1065 22.2835 15.2819C23.5438 15.371 22.7977 15.3323 23.4563 15.7658ZM12.9011 15.1792V14.0064C18.7919 13.5161 19.0744 11.9893 25.2153 13.4198V14.5926C20.3623 14.5926 17.866 15.1788 12.9011 15.1788V15.1792ZM13.4905 9.31845V10.4884C13.7387 10.6467 16.2213 11.4103 13.4877 10.7801C12.0912 10.7829 12.6406 10.5352 13.1932 11.6612C17.6143 11.6612 19.9007 11.0746 24.6291 11.0746V11.6612C21.4192 11.6612 15.3202 12.5727 12.9011 13.7119L11.5178 11.5973C11.4486 11.2812 11.2804 11.2405 11.1417 11.0778V14.0036C11.1693 12.4764 10.9371 14.2022 10.7529 14.593C11.5337 15.9093 11.652 15.9492 12.3149 16.9386C17.8724 16.9386 21.1986 16.352 26.3881 16.352V13.485C26.219 13.3619 25.853 12.9747 25.8958 13.095C25.9221 13.1697 25.8522 12.7741 25.8958 12.705C25.9661 12.5939 26.219 12.438 26.3881 12.315V11.6608C25.3607 8.44574 27.775 9.90145 24.6291 8.46972C24.1292 9.13743 25.5114 9.75879 23.4563 9.11785C22.0337 9.11785 22.3514 9.49506 22.3514 8.14246H22.2807L19.9195 9.18978C19.8204 9.20616 19.649 9.20536 19.5479 9.21615L18.3371 9.2665C18.1945 9.27649 18.0358 9.29647 17.8832 9.30766L16.3104 9.43752C14.989 9.46909 14.963 9.44951 13.4905 9.31845Z" fill="#003D9A"/>
<path fill-rule="evenodd" clip-rule="evenodd" d="M12.9011 6.38346C14.7572 7.07595 13.7423 5.11037 14.0739 8.14245C17.2674 7.87672 15.6283 6.82181 17.0057 8.72905H12.9007V6.38346H12.9011ZM17.5923 7.55625C18.2157 6.9329 19.8164 8.4869 18.2456 7.86074C18.232 7.85555 16.6101 8.53844 17.5923 7.55625ZM11.1417 11.0778C11.28 11.2409 11.4482 11.2812 11.5178 11.5973L12.9011 13.7119L13.1928 11.6612C12.6402 10.5352 12.0908 10.7829 13.4873 10.7801L13.4901 10.4884V9.31844C14.9622 9.44911 14.9886 9.46909 16.31 9.43752L17.8828 9.30765C18.0354 9.29686 18.1941 9.27688 18.3367 9.26649L19.5475 9.21615C19.6486 9.20536 19.82 9.20616 19.9191 9.18977L22.2803 8.14245H19.3513L20.5241 7.55585L20.5381 5.08799C20.5369 4.98969 20.5497 4.77791 20.5213 4.62687C20.3331 4.65244 20.0598 4.56213 19.9759 4.7911L18.1785 5.79646C17.3989 5.33933 17.3478 5.72214 18.0814 5.20987C17.9591 2.78236 19.4524 4.62607 16.4227 3.25308L19.1971 3.29344C19.3329 3.27346 19.5075 3.22031 19.6206 3.19554C19.7145 3.17476 19.8807 3.06767 19.9495 3.04609C20.013 3.02651 20.1581 2.94979 20.2296 2.86428C17.8632 1.59399 19.05 1.83734 16.4195 1.88888C14.6997 3.77095 17.8976 2.57218 15.7166 2.5526C14.1315 2.53861 15.7378 3.02731 14.6605 2.08308L14.0711 1.69149C13.9548 1.64274 10.7374 0.996601 14.2469 1.13726C17.5823 1.27072 15.3214 0.921478 16.4195 2.08069C18.1717 1.30948 17.283 2.43033 17.7897 0.518693C16.8231 0.518693 15.5624 0.435578 14.6461 0.476336C10.542 0.65775 11.5761 1.42376 11.1649 4.06025C10.6211 7.54826 12.0037 5.56151 9.96935 6.38266C10.297 10.3194 11.4007 7.13668 11.7283 11.0738L11.1417 11.0766V11.0778Z" fill="#003D9A"/>
<path fill-rule="evenodd" clip-rule="evenodd" d="M26.3881 8.14281C25.8778 5.27735 26.5207 7.0755 25.2153 5.80042V6.97041L24.9467 8.2483L26.3881 8.14281Z" fill="#0A3162"/>
<path fill-rule="evenodd" clip-rule="evenodd" d="M55.7075 21.6298C57.4217 21.2194 56.5522 21.7053 57.4665 20.457H55.7075V21.6298Z" fill="#003D9A"/>
<path fill-rule="evenodd" clip-rule="evenodd" d="M27.5609 16.3524C29.2751 15.942 28.4056 16.4279 29.3198 15.1796H27.5609V16.3524Z" fill="#003D9A"/>
<path fill-rule="evenodd" clip-rule="evenodd" d="M83.268 15.7658H85.0269C84.1263 14.4699 84.931 15.037 83.268 14.593V15.7658Z" fill="#003D9A"/>
<path fill-rule="evenodd" clip-rule="evenodd" d="M55.1213 11.0746H56.8807C56.3201 10.2982 55.3762 9.23251 55.1213 11.0746Z" fill="#003D9A"/>
<path fill-rule="evenodd" clip-rule="evenodd" d="M18.1785 5.79723L18.0814 5.21063C17.3478 5.72291 17.3989 5.3401 18.1785 5.79723Z" fill="#1E426F"/>
</svg>
