<svg width="84" height="54" viewBox="0 0 84 54" fill="none" xmlns="http://www.w3.org/2000/svg">
<path d="M15.0355 53.3283C13.757 52.8613 13.6833 52.6666 13.6833 49.7571V46.6799L16.5106 45.9022C18.0656 45.4745 20.5549 44.7987 22.0423 44.4005C23.5297 44.0022 25.853 43.2427 27.2052 42.7127C29.0814 41.9773 30.0478 41.8534 31.2848 42.1897L32.9058 42.6305L32.7599 45.6446L32.614 48.6588L30.6472 49.2438C29.5654 49.5655 27.5833 50.0924 26.2425 50.4146C24.9016 50.7369 23.1315 51.3154 22.3088 51.7002C20.9176 52.351 16.5861 53.9482 16.4488 53.8609C16.4152 53.8396 15.7792 53.5999 15.0355 53.3283V53.3283ZM16.0446 50.3395C15.9297 48.3479 15.7005 47.7255 15.0355 47.5991C14.3091 47.4609 14.175 47.8178 14.175 49.8891C14.175 52.1549 14.4981 52.7495 15.7987 52.8775C16.0157 52.8989 16.1263 51.7568 16.0446 50.3395V50.3395ZM20.5252 51.7568C21.5251 51.284 21.7102 50.8464 21.6984 48.9827C21.683 46.5585 21.5806 46.5175 18.1979 47.5836C17.0638 47.9409 16.6514 48.32 16.8457 48.8263C16.9994 49.227 17.1252 50.3261 17.1252 51.2687C17.1252 52.8167 17.2323 52.9505 18.2316 52.6504C18.8401 52.4677 19.8722 52.0656 20.5252 51.7568V51.7568ZM23.7287 50.022C23.8769 49.7823 23.558 49.4711 23.0202 49.3305C22.0583 49.079 21.7268 49.4867 22.3701 50.13C22.8257 50.5856 23.4091 50.5392 23.7287 50.022V50.022ZM26.98 48.4526C27.6183 47.2598 27.2817 46.0325 26.3162 46.0325C25.5422 46.0325 24.3483 48.3381 24.7695 49.0195C25.2577 49.8096 26.4122 49.5135 26.98 48.4526ZM30.7701 48.6728C31.7259 48.4166 31.8765 48.0496 31.8765 45.9751C31.8765 43.2639 31.6234 43.1455 28.7434 44.508C27.497 45.0976 27.0463 45.5364 27.4384 45.7788C27.775 45.9868 27.9462 46.7696 27.8294 47.5658C27.6072 49.0793 28.2918 49.337 30.7701 48.6728ZM24.255 47.5486C24.255 46.4057 23.1347 46.3852 22.529 47.5169C22.022 48.4642 22.0801 48.5532 23.1104 48.4073C23.7399 48.3181 24.255 47.9317 24.255 47.5485V47.5486ZM20.0755 46.0325C19.1222 45.4164 18.6004 45.4164 18.6004 46.0325C18.6004 46.3029 19.0982 46.5208 19.7067 46.5166C20.6013 46.5111 20.6719 46.418 20.0755 46.0325ZM25.6754 45.071C26.4566 44.7734 26.9675 44.4016 26.8108 44.2448C26.3894 43.8234 21.5506 45.1576 21.5506 45.6952C21.5506 46.202 23.4691 45.9118 25.6754 45.071ZM30.4013 43.0822C30.9852 42.7049 30.8827 42.6056 29.9096 42.6056C29.2335 42.6056 28.3484 42.8201 27.9428 43.0822C27.359 43.4595 27.4614 43.5589 28.4345 43.5589C29.1106 43.5589 29.9957 43.3444 30.4013 43.0822ZM43.2627 53.4557C42.849 53.1999 42.5101 51.5889 42.3361 49.0507C42.0965 45.5555 42.164 45.0491 42.8696 45.0491C43.3139 45.0491 43.6775 44.8278 43.6775 44.5573C43.6775 44.2869 43.3308 44.0656 42.9072 44.0656C42.36 44.0656 42.1821 43.6817 42.2926 42.7398C42.4281 41.5853 42.8293 41.2988 45.3984 40.5224C47.0211 40.032 49.0125 39.6883 49.8238 39.7585C51.1839 39.8762 51.3107 40.0491 51.4501 41.9759C51.5627 43.5323 51.8137 44.0755 52.4335 44.1044C52.9861 44.1302 53.0504 44.2296 52.6251 44.4C52.1396 44.5945 52.1876 44.8053 52.8231 45.27C53.3254 45.6372 53.5084 46.1315 53.2794 46.5021C52.9765 46.9921 52.8075 46.9821 52.4667 46.4537C52.1369 45.9423 51.9657 46.0448 51.7333 46.8929C51.5665 47.5014 51.0687 48.0063 50.6269 48.0149C49.9284 48.0288 49.941 48.1193 50.7237 48.7126C52.3651 49.9566 51.5803 51.5038 48.8403 52.4251C45.0774 53.6905 43.9729 53.8946 43.2627 53.4556L43.2627 53.4557ZM44.111 50.8266C44.0789 49.6772 43.8839 48.073 43.6775 47.2617C43.395 46.1518 43.2877 46.6691 43.2439 49.3515C43.2099 51.439 43.3895 52.9164 43.6775 52.9164C43.9479 52.9164 44.143 51.976 44.111 50.8266ZM47.8923 52.1135C51.9973 50.7533 52.4339 49.4496 48.3754 50.671C46.1521 51.3401 46.0141 51.3271 45.7784 50.4261C45.3692 48.861 44.6609 49.3486 44.6609 51.1954C44.6609 53.1774 44.672 53.1805 47.8923 52.1135ZM49.4448 49.6691C49.2814 49.5057 48.8573 49.4882 48.5023 49.6303C48.1101 49.7873 48.2266 49.9038 48.7994 49.9274C49.3178 49.9487 49.6082 49.8325 49.4448 49.6691V49.6691ZM50.9703 46.0824C51.112 45.1055 50.9829 45.005 49.9869 45.3192C46.0639 46.5578 45.3897 46.9222 45.2468 47.8813C45.0961 48.8927 45.1126 48.8937 47.9512 48.0532C50.2402 47.3755 50.8396 46.9842 50.9703 46.0824V46.0824ZM45.5111 45.2437C45.3477 45.0803 44.9236 45.0628 44.5687 45.2049C44.1764 45.3619 44.2929 45.4784 44.8657 45.502C45.3841 45.5233 45.6745 45.4071 45.5111 45.2437V45.2437ZM51.0531 42.3063C51.0531 40.4238 51.2274 40.4417 46.4979 41.8382C44.3169 42.4822 43.079 43.9853 45.2097 43.4024C45.8544 43.226 47.2116 42.9429 48.2258 42.7733C49.8884 42.4951 50.0696 42.5705 50.0696 43.5401C50.0696 44.1317 50.2908 44.4787 50.5614 44.3115C50.8318 44.1443 51.0531 43.242 51.0531 42.3063V42.3063ZM49.5779 43.5739C49.5779 43.3035 49.3697 43.0822 49.1153 43.0822C48.8608 43.0822 48.5158 43.3035 48.3487 43.5739C48.1815 43.8444 48.3898 44.0656 48.8114 44.0656C49.233 44.0656 49.5779 43.8444 49.5779 43.5739ZM43.6775 43.1112C43.6775 42.8568 43.4562 42.5118 43.1857 42.3446C42.9153 42.1775 42.694 42.3858 42.694 42.8073C42.694 43.229 42.9153 43.5739 43.1857 43.5739C43.4562 43.5739 43.6775 43.3657 43.6775 43.1112ZM3.23448 42.2113L0.898865 41.4344V36.94V32.4457L11.1593 29.1591C16.8025 27.3514 21.7409 25.8724 22.1335 25.8724C22.526 25.8724 23.9937 26.2129 25.395 26.6291L27.9428 27.3857L27.9358 31.1773C27.9316 33.2628 27.7657 35.21 27.5671 35.5045C27.1487 36.1246 7.41159 43.1226 6.30821 43.042C5.90256 43.0124 4.51963 42.6386 3.23504 42.2113H3.23448ZM6.30766 38.6447C6.30766 34.3459 6.33344 34.382 2.59816 33.4445C1.39187 33.1418 1.39058 33.1456 1.39058 37.0421V40.9427L3.7262 41.7196C5.01078 42.1469 6.11712 42.5176 6.18472 42.5435C6.25232 42.5694 6.30766 40.8149 6.30766 38.6447V38.6447ZM16.8794 38.9329C17.6907 38.5953 20.2906 37.6786 22.6569 36.8958C26.8433 35.5111 26.9594 35.4313 26.9594 33.9373C26.9594 33.0928 27.0993 31.3813 27.2703 30.1338L27.5811 27.8657L20.3354 30.2931C16.3503 31.6281 12.8361 32.9106 12.526 33.1431C12.216 33.3756 11.5198 33.5881 10.9789 33.6154C10.438 33.6427 9.38698 33.8976 8.64326 34.1819C7.4611 34.6338 7.29039 34.9631 7.28566 36.8008C7.28287 37.9568 7.14241 39.7367 6.97394 40.756L6.66764 42.6093L11.0359 41.0781C13.4385 40.2359 16.0681 39.2705 16.8794 38.9329V38.9329ZM13.2899 38.5585C12.2574 37.526 12.5893 34.789 13.9068 33.4716C15.4232 31.9552 15.9184 31.9582 16.9222 33.4904C18.7214 36.2362 15.4843 40.7529 13.2899 38.5585V38.5585ZM15.8434 36.8956C16.4072 35.4264 16.1668 33.7398 15.3937 33.7398C14.4762 33.7398 13.4452 35.8521 13.8491 36.9045C14.2313 37.9007 15.4598 37.8953 15.8434 36.8962V36.8956ZM10.2413 32.9975C10.2413 32.475 8.79739 32.4575 8.59783 32.9775C8.42732 33.4219 8.64842 33.5498 9.29469 33.3808C9.81534 33.2447 10.2413 33.0721 10.2413 32.9974V32.9975ZM4.49729 32.5661C4.68049 32.0887 4.47679 31.958 3.81785 32.1303C3.30026 32.2657 2.99797 32.5726 3.1461 32.8123C3.54611 33.4595 4.2002 33.3404 4.49729 32.5661ZM6.92229 32.9224C6.58425 32.7859 6.03107 32.7859 5.69303 32.9224C5.35497 33.0589 5.63156 33.1704 6.30766 33.1704C6.98376 33.1704 7.26035 33.0588 6.92229 32.9224V32.9224ZM15.835 31.1583C19.1639 30.091 19.2259 30.0427 17.5908 29.7904C16.5207 29.6252 15.9487 29.2858 16.039 28.8696C16.1212 28.4903 15.9014 28.318 15.5214 28.4638C15.158 28.6033 13.4895 29.1021 11.8135 29.5724C10.1375 30.0426 8.76619 30.5875 8.76619 30.7832C8.76619 31.0617 10.6439 31.8506 12.1733 32.2144C12.2892 32.242 13.9371 31.7668 15.835 31.1583V31.1583ZM22.534 28.4191C21.8579 28.3324 21.0566 27.9418 20.7533 27.5511C20.3505 27.0322 19.8867 26.9617 19.0323 27.2894L17.8628 27.738L19.2446 28.2794C20.0046 28.5772 20.5021 29.0219 20.3502 29.2677C20.1983 29.5134 20.9041 29.4585 21.9187 29.1457C23.5587 28.64 23.6269 28.5594 22.534 28.4192V28.4191ZM18.7233 28.9887C18.3852 28.8523 17.8321 28.8523 17.494 28.9887C17.156 29.1252 17.4325 29.2368 18.1086 29.2368C18.7847 29.2368 19.0613 29.1251 18.7233 28.9887V28.9887ZM26.0432 27.4519C25.6885 27.3337 25.1644 27.4707 24.8787 27.7564C24.5138 28.1213 24.7058 28.1853 25.5237 27.9714C26.1886 27.7976 26.4115 27.5747 26.0432 27.4519ZM23.1487 27.5137C22.8106 27.3772 22.2574 27.3772 21.9194 27.5137C21.5813 27.6501 21.8579 27.7617 22.534 27.7617C23.2101 27.7617 23.4867 27.65 23.1487 27.5137V27.5137ZM60.9091 41.0783C58.6224 40.2873 56.1885 39.6762 55.5003 39.7204C54.8122 39.7646 52.9769 39.3924 51.4218 38.8932L48.5945 37.9856V34.3876C48.5945 32.3167 48.3858 30.7896 48.1028 30.7896C47.8144 30.7896 47.6111 29.0986 47.6111 26.6999V22.6103L51.3559 21.7275C58.7702 19.9796 58.4287 20.1588 58.4287 18.0152C58.4287 16.5367 58.651 16.034 59.4117 15.7926C60.1969 15.5434 60.2959 15.2958 59.9034 14.5625C59.2916 13.4193 59.275 10.1325 59.8762 9.18224C60.2004 8.6699 60.0274 8.32482 59.2541 7.94148C58.4531 7.54439 58.1448 6.88675 58.0318 5.33447C57.8635 3.02174 57.7036 3.14626 62.9727 1.48483C65.2719 0.759837 66.0929 0.698436 67.3981 1.15388C68.2794 1.46144 69.9178 1.95146 71.0391 2.24282C72.9637 2.74295 73.0885 2.88603 73.2712 4.80252C73.3977 6.12858 73.2212 7.07616 72.7621 7.53524C72.2923 8.00497 72.0413 9.43602 72.005 11.851C71.9416 16.0662 72.4914 16.7766 75.2312 16.0202C76.4512 15.6833 77.7277 15.789 80.0739 16.4211L83.26 17.2795L83.4036 21.0843C83.4943 23.4873 83.3584 24.8891 83.0348 24.8891C82.7256 24.8891 82.5224 26.3319 82.5224 28.5278V32.1666L79.941 32.7859L77.3595 33.4052L79.3263 33.9542C81.1139 34.4533 81.3069 34.6667 81.4435 36.2961L81.5938 38.0889L77.264 39.3921C74.8825 40.1088 71.5279 41.1217 69.8092 41.6429C65.9225 42.8215 65.9544 42.8235 60.9092 41.0783H60.9091ZM65.8043 40.7015C65.8043 39.4931 65.5335 39.2231 63.8002 38.7038C61.9888 38.1611 59.4368 38.3192 58.2077 39.0502C57.8566 39.259 61.7596 40.831 65.6814 42.0603C65.749 42.0815 65.8043 41.4701 65.8043 40.7015H65.8043ZM75.6385 39.2579C79.9164 37.9831 80.3227 37.7555 80.4639 36.5545L80.6181 35.2431L78.2512 35.9685C76.9494 36.3674 73.7269 37.2984 71.0902 38.0372C66.5355 39.3135 66.296 39.4472 66.296 40.7132V42.0458L68.6316 41.3479C69.9162 40.964 73.0693 40.0235 75.6385 39.2579V39.2579ZM54.3946 35.8821L54.2492 32.6156L52.0365 31.9559C50.8195 31.5931 49.6578 31.2928 49.455 31.2887C49.2522 31.2845 49.0862 32.6807 49.0862 34.391V37.5008L51.4218 38.2777C52.7064 38.705 53.9335 39.0757 54.1487 39.1016C54.3639 39.1275 54.4745 37.6787 54.3946 35.8821ZM69.3692 35.19L82.0307 31.5809V28.4808C82.0307 26.7758 81.8981 25.3808 81.7362 25.3808C81.5742 25.3808 80.7445 25.7034 79.8923 26.0976C77.9283 27.0063 60.4316 31.5891 57.3223 32.0093L54.9867 32.3249V35.7941C54.9867 38.8587 55.0871 39.2362 55.8472 39.0312C56.3205 38.9035 62.4054 37.1751 69.3692 35.19V35.19ZM65.4904 37.9193C65.2718 37.3497 65.6019 37.1818 66.94 37.1818C67.8929 37.1818 68.7464 37.3743 68.8365 37.6097C68.9267 37.8451 70.6406 37.5508 72.6453 36.9555C75.1198 36.2208 76.0177 35.7687 75.4415 35.5476C74.9747 35.3684 74.7451 34.9753 74.9313 34.674C75.152 34.317 74.9487 34.2214 74.3478 34.3995C73.8407 34.5499 71.3237 35.2645 68.7545 35.9875C63.2525 37.5359 62.8609 37.724 64.116 38.2154C65.5543 38.7787 65.7999 38.7258 65.4904 37.9193V37.9193ZM76.9804 34.9178C76.817 34.7545 76.3929 34.737 76.038 34.879C75.6457 35.0359 75.7622 35.1524 76.335 35.176C76.8534 35.1974 77.1438 35.0811 76.9804 34.9178V34.9178ZM79.0804 34.7232C78.1175 34.1009 77.4665 34.1009 77.8511 34.7232C78.0183 34.9937 78.5292 35.2115 78.9865 35.2074C79.7031 35.2004 79.716 35.1339 79.0804 34.7232H79.0804ZM76.9804 33.9344C76.817 33.771 76.3929 33.7536 76.038 33.8955C75.6457 34.0525 75.7622 34.169 76.335 34.1926C76.8534 34.2139 77.1438 34.0977 76.9804 33.9344V33.9344ZM53.7415 28.4539C53.5545 26.6285 53.2603 25.0063 53.0878 24.849C52.7789 24.5675 49.0223 23.4139 48.4146 23.4139C48.2431 23.4139 48.1028 24.924 48.1028 26.7696V30.1252L50.4384 30.9021C54.192 32.1506 54.1253 32.2 53.7415 28.4539V28.4539ZM66.7877 28.5691C72.6022 27.0472 78.5211 25.4702 79.9409 25.0648L82.5224 24.3276V21.1664C82.5224 19.4278 82.4038 18.0052 82.2587 18.0052C82.1137 18.0052 80.1334 18.4721 77.8581 19.0428L73.7211 20.0804L73.5734 22.3579C73.3969 25.0807 72.4614 25.7057 67.8393 26.1888L64.8544 26.5008L64.5289 24.4657C64.3499 23.3464 64.1765 22.4396 64.1434 22.4507C64.1104 22.4618 61.9813 22.9842 59.4121 23.6116L54.7409 24.7525L54.5956 28.303C54.4639 31.5227 54.5326 31.8294 55.3332 31.5948C55.8187 31.4526 60.9733 30.091 66.7877 28.5691V28.5691ZM59.5104 28.7244C58.6906 27.9046 58.7739 26.3005 59.7054 24.9706C61.5146 22.3876 64.418 25.3922 62.6784 28.0471C61.7903 29.4025 60.4707 29.6847 59.5104 28.7244V28.7244ZM61.7723 28.2327C62.5118 27.4932 62.5446 25.0598 61.8211 24.6126C60.848 24.0112 59.2469 26.1305 59.6028 27.5488C59.9454 28.9137 60.8167 29.1884 61.7723 28.2327H61.7723ZM75.2451 24.7908C73.8159 23.3616 75.3566 19.7923 77.284 20.067C78.1112 20.1849 78.3754 20.6079 78.4918 22.0006C78.7102 24.6142 76.7517 26.2974 75.2451 24.7908V24.7908ZM77.9973 21.9645C77.8067 20.3279 76.6134 20.3538 75.6811 22.0148C75.065 23.1126 75.0536 23.4468 75.6099 24.117C76.2182 24.85 76.3463 24.846 77.2074 24.0667C77.7722 23.5555 78.0856 22.7217 77.9974 21.9646L77.9973 21.9645ZM71.5819 24.8402C72.5728 24.4654 72.6882 24.0883 72.6882 21.2258V18.0298L71.0902 18.3863C68.9799 18.857 61.9832 18.843 60.2726 18.3647C59.0614 18.026 58.9204 18.1127 58.9204 19.1961C58.9204 20.7155 59.3909 21.0003 62.535 21.3841L65.0667 21.6931L65.22 23.8248L65.3732 25.9565L67.9244 25.6076C69.3275 25.4157 70.9734 25.0704 71.5819 24.8402V24.8402ZM58.5845 23.1374L62.4281 22.2352L60.0596 21.5438C57.953 20.9288 57.2697 20.9485 53.8804 21.7219C50.0312 22.6002 49.2698 23.0901 51.0363 23.5521C51.6089 23.7018 51.9596 23.5749 51.8967 23.2406C51.8383 22.9303 52.5097 22.6071 53.3887 22.5224C55.1291 22.3546 55.4915 23.0406 54.1262 23.9184C53.5632 24.2804 53.5207 24.397 54.0033 24.2556C54.409 24.1367 56.4705 23.6336 58.5845 23.1374V23.1374ZM77.8511 18.4523C79.2033 18.1329 80.5199 17.6803 80.7768 17.4467C81.4814 16.8058 79.7124 16.9258 78.6472 17.5911C77.6289 18.227 75.8975 17.796 76.3739 17.0253C76.5422 16.7529 76.3531 16.5301 75.9535 16.5301C74.4687 16.5301 73.6716 17.1612 73.6716 18.3368C73.6716 19.259 73.8762 19.4856 74.5321 19.2898C75.0054 19.1486 76.4989 18.7717 77.8511 18.4523V18.4523ZM67.9502 17.3272C70.3182 16.3378 71.7063 14.3331 71.6973 11.9155C71.6847 8.63953 71.4727 8.52225 65.7464 8.62862C62.9505 8.68061 60.5708 8.81526 60.4581 8.92795C60.3455 9.04057 60.1529 10.1887 60.0302 11.4793C59.7714 14.2009 60.9682 16.1822 63.5499 17.3063C65.488 18.1501 65.9752 18.1524 67.9502 17.3272V17.3272ZM60.072 16.801C60.2548 16.3248 60.1091 16.1791 59.6329 16.3619C59.241 16.5123 58.9204 16.8329 58.9204 17.0744C58.9204 17.7813 59.7736 17.5787 60.072 16.801V16.801ZM61.8706 17.2967C61.8706 17.1774 61.6494 16.9431 61.3789 16.7759C61.1085 16.6088 60.8872 16.7064 60.8872 16.9928C60.8872 17.2792 61.1085 17.5135 61.3789 17.5135C61.6494 17.5135 61.8706 17.4159 61.8706 17.2967ZM70.9672 17.0218C71.1344 16.7513 71.0499 16.5301 70.7794 16.5301C70.509 16.5301 70.151 16.7513 69.9838 17.0218C69.8167 17.2922 69.9012 17.5135 70.1716 17.5135C70.4421 17.5135 70.8001 17.2922 70.9672 17.0218ZM72.6882 17.0508C72.6882 16.7963 72.4669 16.4513 72.1965 16.2842C71.9261 16.1171 71.7048 16.3253 71.7048 16.7469C71.7048 17.1685 71.9261 17.5135 72.1965 17.5135C72.4669 17.5135 72.6882 17.3053 72.6882 17.0508ZM71.8277 7.43566C72.301 7.24136 72.6883 6.60822 72.6884 6.02866C72.6885 5.00151 72.5144 4.97494 65.784 4.97494H58.8794L59.0228 6.20186C59.1289 7.10927 59.5504 7.51827 60.6414 7.77235C62.4057 8.18326 70.608 7.93639 71.8277 7.43566V7.43566ZM72.2503 3.88859C72.6961 3.44279 72.5007 3.23562 71.4071 2.99425C70.6243 2.82147 69.729 2.60327 69.4176 2.50935C69.1062 2.41541 68.7397 2.76582 68.6032 3.28798C68.3986 4.07023 67.9113 4.23736 65.8349 4.23736C64.0485 4.23736 63.2325 4.02265 63.0319 3.4998C62.6135 2.40958 58.9204 2.64696 58.9204 3.76407C58.9204 4.44145 60.8857 4.64981 66.4016 4.55722C69.6812 4.50217 71.8891 4.24976 72.2503 3.88859V3.88859ZM67.7711 3.13102C67.7711 2.73037 67.0008 2.51639 65.5584 2.51639C63.4209 2.51639 62.982 2.7263 63.6736 3.41785C64.2782 4.02248 67.7711 3.77798 67.7711 3.13102V3.13102ZM34.4055 40.1225C31.1841 39.4476 30.8277 38.9656 30.9945 35.5082C31.1313 32.6726 31.2224 32.4763 32.7302 31.7663C34.2872 31.0332 34.2978 31.0066 33.2219 30.5345C32.1676 30.0719 32.1167 29.7637 31.986 23.0579L31.8497 16.0638L33.1138 15.7466C34.5338 15.3902 34.5041 14.41 33.065 14.1415C31.3503 13.8217 30.893 13.0237 30.893 10.3514C30.893 6.68401 31.6937 6.20419 37.813 6.20419C40.4168 6.20419 43.254 6.45056 44.1178 6.75168C45.6786 7.29577 45.6874 7.31784 45.5434 10.3166C45.4051 13.1948 45.3247 13.3664 43.8004 14.0373C41.9095 14.8696 41.8311 15.1506 43.3087 15.7988C44.3551 16.2579 44.4227 16.6037 44.5574 22.1847C44.7237 29.0753 44.5685 29.9696 43.0871 30.6304C41.9917 31.1192 41.9944 31.1279 43.4452 31.8212C44.8042 32.4706 44.9169 32.733 45.0524 35.562C45.1825 38.2774 45.0768 38.6838 44.069 39.3429C42.6444 40.2746 37.2204 40.7122 34.4055 40.1225H34.4055ZM43.4085 39.0697C44.4433 38.5982 44.6609 38.1612 44.6609 36.5538C44.6609 34.7719 44.5679 34.6347 43.5545 34.9204C40.8816 35.6739 36.4363 35.7418 33.9411 35.0673L31.3346 34.3626L31.4826 36.3753C31.5983 37.9488 31.8989 38.5231 32.8599 39.007C34.4109 39.7878 41.7367 39.8314 43.4085 39.0697V39.0697ZM35.4148 34.1663C34.1096 33.79 33.8501 33.5096 34.0945 32.7396C34.3565 31.914 34.2444 31.8382 33.2858 32.1928C32.6737 32.4192 32.0912 32.8497 31.9913 33.1494C31.8035 33.7129 34.3261 34.6346 36.056 34.6346C36.5969 34.6346 36.3084 34.4238 35.4148 34.1663ZM38.7604 32.9449C38.7604 32.4009 39.0608 32.2286 39.712 32.3989C40.2622 32.5428 40.7743 32.3596 40.9259 31.9645C41.133 31.4247 40.5202 31.2813 38.0074 31.2813C34.9425 31.2813 34.8267 31.326 34.8267 32.5106C34.8267 33.6169 35.0234 33.7398 36.7935 33.7398C38.2771 33.7398 38.7604 33.5445 38.7604 32.9449V32.9449ZM43.6775 32.7564C43.6775 32.486 43.4431 32.2647 43.1567 32.2647C42.8703 32.2647 42.7727 32.486 42.9399 32.7564C43.107 33.0269 43.3414 33.2481 43.4606 33.2481C43.5799 33.2481 43.6775 33.0269 43.6775 32.7564ZM43.2374 29.2868C44.0614 28.8458 44.1692 28.1891 44.1692 23.6094C44.1692 18.5796 44.1396 18.44 43.1412 18.7569C41.7531 19.1975 35.9444 19.2061 33.9662 18.7708L32.3682 18.419V23.8445V29.2701L34.2121 29.5785C35.2262 29.7481 36.2773 29.9744 36.5477 30.0812C37.359 30.4019 42.2362 29.8228 43.2374 29.287V29.2868ZM34.5128 16.7759C34.1885 15.9307 34.1974 15.9333 33.1047 16.3526C32.4514 16.6033 32.4184 16.751 32.9416 17.0827C33.9852 17.7442 34.8217 17.5809 34.5128 16.7759ZM43.5648 16.9296C43.2613 16.0191 42.3545 15.9159 42.0325 16.7551C41.8285 17.2866 42.0436 17.5135 42.7504 17.5135C43.3107 17.5135 43.6728 17.2538 43.5648 16.9296ZM39.0272 16.564C38.5938 15.8627 39.756 15.3622 40.3767 15.9829C41.2027 16.8089 41.7106 16.6428 41.7106 15.5466C41.7106 14.6569 41.3828 14.5632 38.2687 14.5632C35.2044 14.5632 34.8267 14.6666 34.8267 15.5057C34.8267 16.024 35.1033 16.5597 35.4413 16.6961C36.5363 17.1379 39.3186 17.0354 39.0272 16.564V16.564ZM43.3087 13.554C45.0781 13.0626 45.1526 12.9555 45.1526 10.9046V8.76727L43.0628 9.25303C40.9337 9.74795 34.2969 9.52109 32.737 8.90008C31.9927 8.60379 31.8765 8.8623 31.8765 10.8134C31.8765 12.8743 31.9934 13.0952 33.2287 13.3676C33.9724 13.5316 34.8021 13.7396 35.0726 13.8299C36.207 14.2083 41.6035 14.0275 43.3087 13.554V13.554ZM44.6555 8.16273C46.0535 7.37749 43.657 6.94177 37.9403 6.94177C32.9031 6.94177 31.2566 7.22337 31.9923 7.95907C33.072 9.03877 42.8168 9.1955 44.6555 8.16273Z" fill="#003D9A"/>
</svg>
