<svg width="112" height="61" viewBox="0 0 112 61" fill="none" xmlns="http://www.w3.org/2000/svg">
<path fill-rule="evenodd" clip-rule="evenodd" d="M16.5022 57.7107L22.374 55.8081L22.4005 59.5232L16.8227 57.9353C16.7533 57.9005 16.606 57.7895 16.5022 57.7107ZM23.6113 59.5232V55.2937L30.2247 53.8954L30.2708 57.7105C28.733 58.4468 25.7943 58.9983 23.6113 59.523V59.5232ZM0.605992 48.6475L12.7579 52.1107L12.714 57.1065L0.612725 54.0607L0.605992 48.6475ZM41.3238 51.0642L47.2074 49.2024L47.2219 52.877L41.3236 51.0642H41.3238ZM48.4329 53.4781V48.6473L55.0463 47.2489L55.0924 51.064C52.8919 52.1178 50.9997 51.6308 48.4329 53.4779V53.4781ZM10.8977 50.4601C11.4575 49.8522 13.1186 51.2921 11.5885 50.7651C11.574 50.7602 10.167 51.2534 10.8977 50.4601ZM8.47614 49.8561H10.2923V50.4601H8.47614V49.8561ZM6.66 49.2519C7.21967 48.644 8.88095 50.0837 7.35067 49.5567C7.33638 49.5518 5.92913 50.0452 6.66 49.2519ZM4.23827 48.6477C4.79815 48.0398 6.45943 49.4798 4.92914 48.9527C4.91466 48.9479 3.50761 49.4411 4.23827 48.6477ZM2.52599 48.4382C3.21645 47.5473 4.44517 48.5377 3.13341 48.5153C3.12055 48.5151 1.17505 50.1811 2.52599 48.4382ZM12.714 49.8561L7.90687 48.5056L9.90195 47.6536C15.4163 45.9389 14.8117 46.7641 18.1626 46.8349C14.8876 49.8076 14.0441 46.5527 12.714 49.8561ZM69.0343 47.5016L69.0168 43.2096C72.1769 42.9288 73.0541 42.0039 76.8841 42.0013L76.1628 45.6125L69.0343 47.5014V47.5016ZM68.3839 43.699L68.4114 47.4393L61.8281 45.5736L68.3837 43.699H68.3839ZM19.979 46.231C20.626 44.6312 18.7335 45.104 22.4005 45.0224C21.6478 45.549 22.8314 44.9705 21.2569 45.7223C20.9082 45.8889 20.1732 46.0532 19.979 46.231ZM23.6113 43.8142C26.9326 43.7104 28.9258 41.4535 30.8762 44.4184C28.7483 44.4848 28.671 44.9181 27.1862 44.991C25.6096 45.0682 26.4494 45.1366 25.1717 44.7043C22.8129 43.9065 24.4211 44.3734 23.611 43.8142H23.6113ZM32.7962 42.5539C33.3587 41.9754 34.7382 43.5699 33.4036 42.9241C33.3908 42.918 31.6777 43.7038 32.7962 42.5539ZM35.7195 42.6056L36.941 40.1944L39.9304 40.935C38.889 42.3507 37.7698 42.4234 35.7197 42.6056H35.7195ZM23.0059 40.1889C25.2827 40.7328 24.802 40.3549 25.4276 42.0017C23.6433 41.5196 24.1746 41.9497 23.0059 40.1889ZM42.9844 39.5847C43.5443 38.9769 45.2054 40.4168 43.6753 39.8898C43.6608 39.8849 42.2538 40.3781 42.9844 39.5847ZM24.8222 38.3763L26.2642 40.0317C24.0952 39.4071 25.2533 41.2519 24.8222 38.3763ZM34.5087 38.9805L34.6895 39.1605C34.6774 39.1489 34.4485 39.0404 34.5087 38.9805ZM29.0601 38.8252C29.0176 37.4524 30.0854 38.9724 29.4478 38.9396C29.4402 38.9392 29.1095 40.4231 29.0601 38.8252ZM93.8623 40.8747L93.8386 36.5636C97.6574 36.5601 97.0069 35.4289 100.498 35.355V38.9803L93.8623 40.8745V40.8747ZM93.194 37.0171L93.2332 40.7931C91.199 40.304 88.9264 40.0229 87.3349 38.7732L93.194 37.0171ZM46.6171 38.3763H49.0386V38.9805H46.6171V38.3763ZM27.7457 39.6366C26.851 39.7826 26.8565 38.426 27.8008 38.5918C29.2182 38.8402 27.9083 37.3808 27.9313 38.8718C27.933 38.9893 28.2148 39.5599 27.7457 39.6366ZM32.6928 37.7722L32.8735 37.9524C32.8615 37.9406 32.6326 37.8322 32.6928 37.7722ZM49.7479 37.1162C53.5365 36.2874 51.7246 36.8686 55.0929 37.168C53.0649 38.5682 51.4302 38.4189 49.7479 37.1162ZM44.8008 36.564H45.4062L44.9016 37.2688L44.8006 36.564H44.8008ZM37.536 36.564L37.7168 36.744C37.7048 36.7324 37.4758 36.6239 37.536 36.564ZM32.7966 36.5121C33.3592 35.9335 34.7387 37.5282 33.404 36.8823C33.3912 36.876 31.6781 37.662 32.7966 36.5121ZM19.9274 36.3567C19.9643 35.1664 21.2177 36.7428 20.3593 36.5516C20.3509 36.5497 19.8688 38.2474 19.9274 36.3567ZM18.1112 36.3567C18.1112 35.1994 19.4199 36.6988 18.5552 36.5336C18.5544 36.5334 18.4987 36.5231 18.4964 36.5222C18.2675 36.4432 18.1112 38.445 18.1112 36.3567ZM15.1359 35.9596C17.1386 36.5033 16.4075 35.7737 16.9523 37.7722C14.6426 37.1077 16.0292 37.8461 15.1359 35.9596ZM35.2181 35.9077C35.7807 35.3293 37.1602 36.9238 35.8256 36.2779C35.8127 36.2718 34.0998 37.0576 35.2181 35.9077ZM59.9361 36.5638C57.565 36.5681 57.5401 37.0719 55.8537 35.7523C57.1922 35.0868 58.5874 34.6826 59.9361 36.5638ZM41.7739 35.3552L41.9547 35.5354C41.9428 35.5236 41.7139 35.4153 41.7739 35.3552ZM36.9306 35.3552H38.747C38.625 35.435 38.4391 35.455 38.3862 35.602C38.3387 35.7344 38.0867 35.7606 38.0239 35.7556C36.8245 35.6607 37.7815 35.884 36.9306 35.3552ZM62.3578 34.751H64.174C64.0522 34.8308 63.8661 34.8508 63.8132 34.9978C63.5759 35.659 62.3684 34.7577 62.3578 34.751ZM44.1956 34.751L44.3762 34.9312C44.3643 34.9194 44.1354 34.8111 44.1956 34.751ZM39.3522 34.751C39.912 34.1432 41.5733 35.5831 40.043 35.0561C40.0285 35.0512 38.6215 35.5444 39.3522 34.751ZM62.3576 34.751H60.5415C60.6633 34.6712 60.8494 34.3604 60.9022 34.5042C60.9498 34.6337 61.2015 34.3458 61.2644 34.3507C62.4637 34.4454 61.5068 34.222 62.3576 34.751ZM49.0386 34.147L49.2194 34.3271C49.2074 34.3154 48.9785 34.2069 49.0386 34.147ZM47.2223 34.147L47.4031 34.3271C47.3912 34.3154 47.1623 34.2069 47.2223 34.147ZM41.7737 34.147C42.3336 33.539 43.9948 34.9789 42.4645 34.4519C42.4503 34.447 41.043 34.9404 41.7737 34.147ZM21.7953 34.147C22.3552 33.539 24.0163 34.9789 22.4862 34.4519C22.4717 34.447 21.0647 34.9404 21.7953 34.147ZM24.2168 33.5429H26.033V34.147H24.2168V33.5429ZM66.1456 32.9387C67.9246 32.0596 67.2753 31.9824 68.4116 33.5429C68.0721 33.5429 67.4202 33.5549 67.2519 33.5025C66.0197 33.1201 66.7022 33.3598 66.1456 32.9385V32.9387ZM64.7791 32.9387L64.9599 33.1187C64.9479 33.1071 64.7189 32.9987 64.7791 32.9387ZM59.3305 32.3345C59.3305 31.6242 60.6333 30.973 60.2677 32.3345C59.901 33.6997 61.8079 32.351 59.9881 32.5137C59.2254 32.5819 59.3305 33.5628 59.3305 32.3345ZM73.8602 31.1261C73.4875 34.4694 73.4208 32.4147 69.6224 32.3345C70.6658 31.614 68.5569 32.2962 71.1682 31.4605C72.6599 30.9832 72.2722 31.1595 73.8602 31.1261ZM24.8224 31.7301C23.8806 32.4337 24.5533 32.4337 23.6115 31.7301H24.8224ZM76.282 31.1261H76.8872L76.3828 31.8309L76.2818 31.1261H76.282ZM13.9252 57.1071V52.2734L111.332 26.054L111.396 31.1261L13.9252 57.1071ZM76.282 31.1261H75.6766L76.1812 30.4211L76.2822 31.1261H76.282ZM36.9304 35.3556L32.7046 36.0215L34.5056 32.9366L45.3845 30.4376L43.5933 33.5451C41.2264 33.6168 38.5317 34.2472 36.9304 35.3556ZM58.7251 29.9177L58.9059 30.098C58.8939 30.0861 58.6651 29.9778 58.7251 29.9177ZM79.3091 30.5219C79.8065 29.2121 79.4854 29.1549 81.6414 28.5389C83.2535 28.0783 83.0997 27.939 84.2041 29.2616C82.4608 30.8547 82.4492 30.5219 79.3091 30.5219ZM67.2009 28.7094L70.2606 28.2775C69.6585 30.1686 67.9995 31.7452 67.2009 28.7094ZM85.9685 28.1052H87.7846V28.7094H85.9685V28.1052ZM53.2765 28.1052L53.4573 28.2852C53.4452 28.2736 53.2165 28.1651 53.2765 28.1052ZM24.8224 31.7303C24.4511 30.9265 24.2248 30.2456 23.9214 29.6084C23.0063 27.6867 23.2448 29.6056 23.0061 26.8966C27.974 27.3381 23.6106 28.1052 34.5089 28.1052L33.3622 31.7527C31.5463 31.5833 27.6155 29.5396 29.2758 32.0677C30.3822 33.7526 29.3459 31.1308 30.271 33.5433C27.4594 33.4838 27.249 32.9576 24.8224 31.7305V31.7303ZM89.6009 26.8966L89.7817 27.0768C89.7697 27.065 89.5407 26.9567 89.6009 26.8966ZM71.5424 26.2407C71.7162 26.2026 72.748 25.8801 72.895 25.8784C75.4556 25.8528 73.4685 25.6721 74.5175 26.3443C73.5762 27.5704 74.3712 27.2067 73.3763 27.2179C71.3891 27.2405 71.5499 26.2472 71.5422 26.2407H71.5424ZM60.5415 26.2924L60.7221 26.4726C60.7102 26.461 60.4813 26.3525 60.5415 26.2924ZM46.771 27.6851L35.0935 31.0512L35.371 28.1801C38.6809 25.9807 43.8802 26.0043 47.2223 24.4799L46.771 27.6851ZM109.078 25.0323C109.64 24.4538 111.02 26.0483 109.685 25.4025C109.672 25.3964 107.959 26.1823 109.078 25.0323ZM79.9143 25.084C80.4741 24.4762 82.1354 25.9159 80.6051 25.3889C80.5906 25.384 79.1836 25.8774 79.9143 25.084ZM91.4171 25.6882C93.4503 25.6247 95.1081 25.1089 96.9524 24.5346C100.505 23.4285 98.7596 24.4047 102.314 24.4797C101.891 24.776 101.995 24.8203 101.175 25.184C98.1485 26.5252 94.3458 27.7103 91.4171 25.6882ZM82.336 24.4797C82.9624 23.873 84.5182 25.3282 83.0401 24.7977C83.0254 24.7924 81.587 25.2052 82.336 24.4797ZM78.202 24.4279C78.7645 23.8494 80.144 25.4439 78.8094 24.7981C78.7965 24.792 77.0836 25.5779 78.202 24.4279ZM104.234 23.8238C104.781 23.2599 105.835 24.7393 104.827 24.2082C104.815 24.2017 103.137 24.9549 104.234 23.8238ZM79.9143 23.8755H81.7306C81.6086 23.9553 81.4227 23.9753 81.3699 24.1223C81.1326 24.7835 79.9249 23.8822 79.9143 23.8755ZM103.525 23.2715C102.404 24.0095 105.137 23.8565 102.797 23.6718C101.6 23.5771 102.419 23.7364 101.709 23.2715H103.525ZM82.4398 23.2196C82.9869 22.6557 84.0405 24.1351 83.033 23.6042C83.0205 23.5975 81.3429 24.3508 82.4398 23.2196ZM47.8279 27.5008L48.772 24.2536L59.8953 21.2987C59.849 25.5711 58.6643 24.8464 55.1035 25.6986C52.8886 26.2287 49.8917 27.3173 47.8279 27.5008ZM99.9967 22.6152C100.543 22.0513 101.597 23.5307 100.59 22.9998C100.577 22.9933 98.8998 23.7464 99.9967 22.6152ZM84.7577 22.6671C85.3839 22.0605 86.9399 23.5157 85.4616 22.9852C85.4469 22.9799 84.0085 23.3927 84.7577 22.6671ZM91.4171 22.0629L91.5979 22.2429C91.5858 22.2313 91.3569 22.123 91.4171 22.0629ZM87.2829 22.0112C87.8456 21.4327 89.2251 23.0271 87.8903 22.3814C87.8776 22.3753 86.1645 23.1611 87.2829 22.0112ZM93.7868 21.2516C93.7868 20.0944 95.0955 21.5937 94.2308 21.4284C94.2299 21.4282 94.1742 21.418 94.172 21.4172C93.9431 21.338 93.7868 23.3399 93.7868 21.2516ZM79.9143 23.8755C77.3901 23.8804 76.413 23.9716 74.5695 22.7708C76.8743 21.9363 79.7402 21.1903 82.0856 20.598C84.9932 19.8635 86.4586 19.2082 88.9956 21.4585C86.3002 21.5428 81.7484 22.606 79.9145 23.8753L79.9143 23.8755ZM65.3845 23.2715L61.1585 23.9372L61.1467 20.8543C62.2336 20.3385 63.7385 20.0418 65.3845 19.646C64.7124 22.7848 65.3331 20.2487 65.3845 23.2713V23.2715ZM72.1653 21.5037L66.0195 22.7803C66.5022 20.2624 66.4457 21.8843 65.9901 19.6462C68.7532 18.978 69.9699 17.9031 73.2549 17.8336L72.1653 21.5037ZM65.9381 18.2305C65.9381 17.0732 67.2468 18.5726 66.3823 18.4073C66.3814 18.4071 66.3255 18.3969 66.3235 18.3961C66.0944 18.317 65.9381 20.3188 65.9381 18.2305ZM64.7273 18.2305C64.764 17.0403 66.0176 18.6164 65.1593 18.4254C65.1507 18.4235 64.6688 20.1211 64.7273 18.2305ZM92.6278 16.625C94.6303 17.1687 93.8992 16.4391 94.444 18.4376H92.6278V16.625ZM60.5413 17.2292L64.1413 17.9898C63.548 19.4802 64.0287 19.1021 61.752 19.646C61.3293 19.0345 61.7296 19.8616 61.0752 18.503C61.01 18.3673 60.6674 17.5001 60.5413 17.2292ZM87.7844 16.625C89.3024 16.7601 88.4241 16.4707 89.8644 16.9661C92.3044 17.8055 90.4944 17.1964 91.4169 17.8334C89.0541 17.7833 89.464 18.0975 87.7844 16.6248V16.625ZM90.8115 16.0209H91.4169L90.9123 16.7258L90.8113 16.0209H90.8115ZM85.5169 17.4135L73.8282 20.7381L74.4473 17.2256L85.9481 14.1344L85.5169 17.4133V17.4135ZM70.8331 11.1872C72.4677 12.3917 72.6466 13.8053 72.6493 16.625L67.2464 18.032C67.6812 16.061 67.8181 16.3404 69.0156 14.8113C70.6852 12.6798 70.6401 13.7414 70.8331 11.1874V11.1872ZM95.0494 14.8125V16.625C93.5938 15.5482 92.9976 16.2353 95.0494 14.8125ZM90.8115 16.0209H88.39C88.8036 14.7052 88.5067 14.4254 90.8115 16.0209ZM44.8006 13.6041C47.9703 13.5051 51.4777 11.6529 53.4138 12.2467C55.0384 12.7452 55.3077 13.4335 56.2895 14.8263C58.1387 17.4502 57.1928 15.9675 59.9359 17.2294V20.2506C57.9808 20.613 60.1006 20.1907 58.4911 20.6334C58.347 20.6727 58.1597 20.7267 58.0002 20.7694C57.8106 20.8205 57.2275 20.9863 57.029 21.0356L48.4333 23.2717C47.5892 19.7747 46.8801 16.2178 43.0885 14.709L44.8008 13.6041H44.8006ZM91.4169 14.8127L88.4167 14.0664C88.591 12.3495 87.5383 12.0408 89.8429 12.6085C91.4363 13.0012 91.2296 13.14 91.4169 14.8127ZM58.728 12.8431L68.3935 9.91506L68.8983 13.442L64.682 17.7371C63.9856 16.5273 64.269 16.4061 59.9357 16.0209L58.728 12.8431ZM56.3032 12.9999C56.7207 12.5912 58.3356 13.3905 57.2691 13.7522C56.5731 13.9884 56.171 13.1294 56.3032 12.9999ZM92.7839 14.4466L92.6276 11.7916L94.9594 12.6468L92.7841 14.4463L92.7839 14.4466ZM86.5734 10.5832C87.0858 11.3869 87.2451 9.66581 87.0882 11.7936C86.9939 13.0714 86.9895 12.3465 86.5734 13.0001V10.5834V10.5832ZM90.8113 11.7918H91.4167L90.9121 12.4967L90.8111 11.7918H90.8113ZM90.8113 11.7918C88.3843 11.7451 89.6262 12.2548 87.9401 11.0322C88.4522 10.7868 86.6332 10.1301 89.2259 10.9051C91.1726 11.4869 90.2341 11.3922 90.8113 11.7918ZM85.968 8.77063L86.5734 10.5832L85.968 8.77063ZM70.8329 11.1874C70.1443 10.6958 70.3669 11.5843 69.9358 10.3586C69.229 8.3491 69.7925 10.1091 70.0719 9.53019L70.8329 11.1874ZM70.8329 7.56205C74.2538 7.48997 79.3783 5.16832 80.9634 5.3799C84.5294 5.85579 85.3682 10.6903 85.3627 13.6043L73.8086 16.4285C73.7613 11.9697 71.3365 11.0477 70.8331 7.56226L70.8329 7.56205ZM59.3277 8.72746C58.9857 9.00847 59.801 9.35302 57.7717 9.62997C56.5538 9.79593 57.3767 9.91526 56.4589 9.16772L59.3277 8.72746ZM50.9584 8.7189C51.5053 8.15483 52.5591 9.63445 51.5516 9.10337C51.5391 9.09685 49.8615 9.84989 50.9584 8.7189ZM85.3627 7.56205L85.968 8.77063L85.3627 7.56205ZM60.5411 8.16624C60.5411 6.60456 61.4639 8.02878 60.899 8.16624C60.892 8.16787 60.5411 9.77312 60.5411 8.16624ZM64.1733 6.95787C63.5263 8.55762 65.4186 8.08458 61.7518 8.16624C62.3895 7.72598 61.4896 8.16257 62.8912 7.49078C63.0134 7.43213 63.9301 7.07353 64.1736 6.95787H64.1733ZM58.1193 7.56185L58.3001 7.74207C58.2883 7.73046 58.0594 7.62192 58.1193 7.56185ZM56.9086 7.56185L57.0894 7.74207C57.0773 7.73046 56.8484 7.62192 56.9086 7.56185ZM55.0924 7.56185L53.2655 8.74741C54.0933 7.63882 53.7178 7.98073 55.0924 7.56185ZM85.3627 7.56185H84.7575L85.2619 6.85707L85.3629 7.56185H85.3627ZM55.0924 7.56185V6.95787L55.7986 7.46125L55.0924 7.56205V7.56185ZM57.514 6.35348C58.1402 5.74685 59.6962 7.20203 58.2179 6.67156C58.2032 6.66626 56.7647 7.07903 57.514 6.35348ZM67.8058 5.74929L67.9866 5.92951C67.9746 5.9177 67.7456 5.80936 67.8058 5.74929ZM62.3572 5.14511H66.5951C66.3302 7.5814 67.2694 7.08555 65.3558 6.53105C64.2917 6.22295 65.6957 5.74929 62.3574 5.74929V5.14511H62.3572ZM70.3318 5.96026C71.4673 4.01982 70.5075 4.72888 72.6491 4.54112L70.3318 5.96026ZM73.9637 3.88501C74.5262 3.30669 75.9059 4.90115 74.5711 4.25522C74.5585 4.24891 72.8454 5.03494 73.9637 3.88501ZM76.2816 3.93694L78.6158 2.54733C77.3422 4.72745 78.8508 3.70744 76.2816 3.93694ZM83.5463 2.12418H84.1517L83.6471 2.82916L83.5461 2.12418H83.5463ZM79.9138 2.12418C80.4737 1.51633 82.135 2.95623 80.6047 2.42922C80.5902 2.42434 79.1832 2.91754 79.9138 2.12418ZM83.5463 2.12418H82.9409L83.4455 1.4194L83.5465 2.12418H83.5463ZM44.8004 13.6043C41.7472 13.6996 37.8761 14.5282 35.7195 16.0211C36.6213 15.993 47.2111 11.5238 47.2221 23.8759L35.7768 26.5299C34.2159 22.3669 35.0308 22.1765 31.7318 18.7925C31.1419 18.1875 31.6956 18.9768 30.8762 17.8338L33.2977 16.6252C30.4894 16.713 27.3966 17.308 25.4274 19.042C28.5592 18.7202 32.1337 16.4558 34.5083 26.2924C31.5789 28.3151 25.9322 26.5635 23.0055 25.084L23.6108 21.4587C20.6129 24.8246 22.9208 27.7395 23.0055 31.7303C19.3738 33.5752 20.9792 32.6963 19.629 32.1738C19.556 32.1455 19.3787 32.0736 19.3059 32.0476L18.6952 31.8777C16.2694 31.1463 19.9084 29.8982 16.9517 28.7094C16.9466 31.4755 17.3538 31.8696 17.5568 34.1472C14.2304 35.3489 20.2203 33.0539 16.3757 34.781C15.5318 35.1599 17.3002 35.053 14.5299 35.3556C14.5983 39.4988 15.7911 38.6201 18.7839 38.4947C20.8451 38.4081 22.0899 38.568 22.4001 42.0021C17.5954 42.1035 4.04729 47.0826 0 48.0441V54.6906L22.9946 60.4934C24.6694 60.494 29.8191 58.8174 30.8758 58.3159V53.482C33.3849 53.259 34.9768 52.3771 37.1647 51.8721C42.9106 50.5454 45.2513 56.6294 55.6972 51.6694V46.8358C64.9858 46.01 57.0094 45.5773 66.3206 47.7199C69.9439 48.5536 73.4632 47.0545 76.8863 46.2314V41.3977C83.0983 39.9217 82.264 38.7592 89.2253 40.563C95.6317 42.223 95.8445 40.9947 101.708 39.5849V34.7512L111.926 32.0565L112 25.0838L103.524 23.2713C100.512 21.1859 99.3007 22.628 97.1973 20.5226C93.9937 17.316 96.8788 16.7937 96.8649 9.37441C94.952 10.1423 95.5523 8.87265 96.2595 11.7911L93.2595 11.0448C94.2734 8.75413 93.868 11.0027 91.4681 8.11411L90.8421 10.3523C90.8329 10.3975 90.8027 10.5467 90.7591 10.6345L87.8142 9.8279C83.2425 1.35016 87.6954 -2.09372 76.0424 1.28133L49.0378 7.56165C50.6052 14.0301 47.9444 11.427 44.8 13.6037L44.8004 13.6043Z" fill="#003D9A"/>
<path fill-rule="evenodd" clip-rule="evenodd" d="M35.7197 16.0199C33.2047 16.029 34.5412 15.8057 33.2982 16.6241C35.8129 16.6149 34.4767 16.8383 35.7197 16.0199Z" fill="#003D9A"/>
<path fill-rule="evenodd" clip-rule="evenodd" d="M23.6115 21.4579C24.9142 20.5544 24.4088 21.3695 24.8224 19.6453C23.5196 20.5489 24.025 19.7337 23.6115 21.4579Z" fill="#003D9A"/>
<path fill-rule="evenodd" clip-rule="evenodd" d="M25.4278 19.041L24.8222 19.6451L25.4278 19.041Z" fill="#003D9A"/>
</svg>
