<svg width="16" height="16" viewBox="0 0 16 16" fill="none" xmlns="http://www.w3.org/2000/svg">
<path fill-rule="evenodd" clip-rule="evenodd" d="M11.3333 16H4.66667V15.3333C5.68867 15.0893 6.25733 14.2853 6.33133 13.3333H9.66867C9.74267 14.2847 10.3113 15.0893 11.3333 15.3333V16ZM15.3333 12.6667C15.51 12.6667 15.68 12.5967 15.8047 12.4713C15.93 12.3467 16 12.1767 16 12V0.666667C16 0.49 15.93 0.32 15.8047 0.195333C15.68 0.07 15.51 0 15.3333 0H0.666667C0.49 0 0.32 0.07 0.195333 0.195333C0.07 0.32 0 0.49 0 0.666667V12C0 12.1767 0.07 12.3467 0.195333 12.4713C0.32 12.5967 0.49 12.6667 0.666667 12.6667H15.3333ZM8 10.3873C8.368 10.3873 8.66667 10.686 8.66667 11.054C8.66667 11.422 8.368 11.7207 8 11.7207C7.632 11.7207 7.33333 11.422 7.33333 11.054C7.33333 10.686 7.632 10.3873 8 10.3873ZM14.6667 1.33333H1.33333V9.33333H14.6667V1.33333Z" fill="#9FA2B4"/>
</svg>
