<svg width="16" height="16" viewBox="0 0 16 16" fill="none" xmlns="http://www.w3.org/2000/svg">
<path fill-rule="evenodd" clip-rule="evenodd" d="M8.93533 16H0V1.33333H2C2.82067 1.33333 3.454 0.610667 4 0H9.33333C9.88067 0.610667 10.5147 1.33333 11.3333 1.33333H13.3333V7.43333C13.01 7.368 12.6753 7.33333 12.3333 7.33333L12 7.344V2.66667H9.33333L8 4H5.402L4 2.66667H1.33333V14.6667H7.91067C8.17533 15.1673 8.52333 15.618 8.93533 16V16ZM12.3333 8.66667C14.3567 8.66667 16 10.3093 16 12.3333C16 14.3573 14.3567 16 12.3333 16C10.3093 16 8.66667 14.3573 8.66667 12.3333C8.66667 10.3093 10.3093 8.66667 12.3333 8.66667ZM12.3333 10C13.6207 10 14.6667 11.0453 14.6667 12.3333C14.6667 13.6213 13.6207 14.6667 12.3333 14.6667C11.0453 14.6667 10 13.6213 10 12.3333C10 11.0453 11.0453 10 12.3333 10ZM14 12.6667H12V10.6667H12.6667V12H14V12.6667ZM3.89933 9.96533L3.2 9.30933L2.66667 9.858L3.90933 11.042L6 8.914L5.45667 8.37533L3.89933 9.96533V9.96533ZM8 10.6667H6.66667V10H8V10.6667ZM9.33333 9.33333H6.66667V8.66667H9.33333V9.33333ZM3.89933 6.65L3.2 5.99467L2.66667 6.54333L3.90933 7.72733L6 5.59933L5.45667 5.06067L3.89933 6.65ZM9.33333 7.33333H6.66667V6.66667H9.33333V7.33333ZM9.33333 6H6.66667V5.33333H9.33333V6ZM6 2C6 2.368 6.29933 2.66667 6.66667 2.66667C7.03533 2.66667 7.33333 2.368 7.33333 2C7.33333 1.632 7.03533 1.33333 6.66667 1.33333C6.29933 1.33333 6 1.632 6 2Z" fill="#9FA2B4"/>
</svg>
