<svg width="16" height="16" viewBox="0 0 16 16" fill="none" xmlns="http://www.w3.org/2000/svg">
<path d="M4.66669 6.66667H2.66669V6H4.66669V6.66667ZM8.66669 8H10.6667V7.33333H8.66669V8ZM10.6667 4.66667H2.66669V5.33333H10.6667V4.66667ZM10.6667 8.66667H2.66669V9.33333H10.6667V8.66667ZM10.6667 10H2.66669V10.6667H10.6667V10ZM10.6667 6H8.66669V6.66667H10.6667V6ZM8.00002 8V6H5.33335V8H8.00002ZM7.29669 3.12533L7.45535 3.98133H7.78869L8.12269 2.68733H7.80135L7.63535 3.56733L7.47669 2.68733H7.14869L6.96869 3.584L6.80869 2.68733H6.47202L6.77869 3.98133H7.11602L7.29669 3.12533ZM2.66669 8H4.66669V7.33333H2.66669V8ZM14.96 10.8513C15.082 9.30867 14.6714 9.158 12.768 7.30333C12.882 8.11867 13.12 9.568 13.3754 10.6373C13.4347 10.892 13.098 11.0513 12.9847 10.7807C12.8487 10.4507 12.628 9.046 12.438 7.634C12.3354 6.878 11.3307 6.97067 11.3334 7.752C11.3367 8.96667 11.3354 9.97933 11.3334 11.7793C11.3314 13.3147 12.0307 13.3447 12.546 15.0667C12.634 15.3627 12.71 15.6847 12.772 15.9993L15.3334 15.1067C14.4407 13.3593 14.8714 11.9807 14.96 10.8513V10.8513ZM10.6747 12H2.00002V1.33333H11.3334V6.596C11.764 6.368 12.232 6.41333 12.5847 6.66333L12.6667 6.65133V1C12.6667 0.448 12.2187 0 11.6667 0H1.66669C1.11469 0 0.666687 0.447333 0.666687 1V12.3333C0.666687 12.886 1.11469 13.3333 1.66669 13.3333H10.9827C10.8194 12.99 10.6994 12.584 10.6747 12ZM8.56402 3.736C8.46469 3.736 8.34802 3.70733 8.25335 3.65867L8.23735 3.65L8.17202 3.91533L8.18202 3.92067C8.25002 3.95933 8.39402 4 8.54669 4C8.93402 4 9.07202 3.78133 9.07202 3.59333C9.07202 3.412 8.96469 3.288 8.73402 3.20267C8.56469 3.13867 8.50869 3.106 8.50869 3.038C8.50869 2.97267 8.57535 2.93067 8.67802 2.93067C8.76869 2.93067 8.85535 2.95067 8.93669 2.98933L8.95202 2.99667L9.02335 2.73667L9.01335 2.732C8.91669 2.68867 8.80602 2.66667 8.68335 2.66667C8.38869 2.66667 8.19069 2.826 8.19069 3.062C8.19069 3.23667 8.31135 3.36733 8.54735 3.44933C8.69869 3.50333 8.75002 3.54533 8.75002 3.614C8.75002 3.692 8.68202 3.736 8.56402 3.736V3.736ZM5.01402 3.98133H5.33735V2.68733H5.04535V3.48L4.61869 2.68733H4.26135V3.98133H4.55335V3.09667L5.01402 3.98133V3.98133ZM6.36602 2.95133V2.68733H5.55602V3.98133H6.39269V3.71733H5.87269V3.44667H6.33802V3.18467H5.87269V2.95133H6.36602V2.95133Z" fill="#9FA2B4"/>
</svg>
