<svg width="16" height="16" viewBox="0 0 16 16" fill="none" xmlns="http://www.w3.org/2000/svg">
<path d="M12 6.68733V2.40533L7.976 0L4 2.37933V6.712L0 8.86133V13.672L4.09067 16L8 13.738L11.9093 16L16 13.672V8.88733L12 6.68733V6.68733ZM11.238 6.71133L8.35733 8.30067V4.99667L11.238 3.304V6.71133ZM7.97467 0.904667L10.8227 2.63533L7.97733 4.308L5.19333 2.60533L7.97467 0.904667V0.904667ZM7.59533 4.994V8.30067L4.762 6.68667V3.264L7.59533 4.994V4.994ZM3.70867 14.8887L0.761333 13.196V9.74533L3.70867 11.4753V14.8887ZM1.19333 9.08733L4.37867 7.40067L7.20333 9.012L4.09133 10.79L1.19333 9.08733V9.08733ZM4.47133 11.4787L7.61933 9.68067V13.0513L4.47133 14.8893V11.4787V11.4787ZM11.5287 14.8887L8.38067 13.0507V9.64L11.5287 11.476V14.8887ZM8.81267 8.98133L11.644 7.388L14.8233 9.11733L11.912 10.79L8.81267 8.98133V8.98133ZM15.238 13.1967L12.2907 14.8893V11.4787L15.238 9.78667V13.1967V13.1967Z" fill="#9FA2B4"/>
</svg>
