<svg width="16" height="16" viewBox="0 0 16 16" fill="none" xmlns="http://www.w3.org/2000/svg">
<path fill-rule="evenodd" clip-rule="evenodd" d="M13.1713 13.4473C12.644 13.7967 12.012 14 11.3333 14C9.49333 14 8 12.5067 8 10.6667C8 8.82666 9.49333 7.33332 11.3333 7.33332C13.1733 7.33332 14.6667 8.82666 14.6667 10.6667C14.6667 11.3453 14.4633 11.9773 14.114 12.5047L16 14.3907L15.0573 15.3333L13.1713 13.4473V13.4473ZM8.06867 14H0V0.666656H4.66667C5.79667 1.96132 6.24733 2.66666 7.33333 2.66666H14.6667V7.40199C13.8193 6.53732 12.6387 5.99999 11.3333 5.99999C8.758 5.99999 6.66667 8.09132 6.66667 10.6667C6.66667 11.972 7.204 13.1527 8.06867 14V14ZM11.3333 8.66666C12.4373 8.66666 13.3333 9.56266 13.3333 10.6667C13.3333 11.7707 12.4373 12.6667 11.3333 12.6667C10.2293 12.6667 9.33333 11.7707 9.33333 10.6667C9.33333 9.56266 10.2293 8.66666 11.3333 8.66666Z" fill="#9FA2B4"/>
</svg>
