<svg width="16" height="16" viewBox="0 0 16 16" fill="none" xmlns="http://www.w3.org/2000/svg">
<path fill-rule="evenodd" clip-rule="evenodd" d="M13.5547 15.3333H8.88866L7.40467 10.9713C7.314 10.7853 7.12466 10.6667 6.91666 10.6667H6.66666V9.99999H9.15266L10.5233 7.50799C10.594 7.39399 10.7133 7.33332 10.8347 7.33332C11.1187 7.33332 11.2953 7.64599 11.146 7.88932L9.98533 9.99999H12.6813L11.5207 7.88932C11.3713 7.64599 11.548 7.33332 11.832 7.33332C11.9533 7.33332 12.0727 7.39399 12.1433 7.50799L13.514 9.99999H16V10.6667H15.7507C15.5427 10.6667 15.3527 10.7853 15.262 10.9727L13.5547 15.3333ZM7.95733 14.6667H-1.55331e-06C-1.55331e-06 14.482 -0.00133489 12.9653 -0.00266822 12.798C-0.00800155 11.3907 0.0526651 10.5853 1.67333 10.2113C3.44866 9.80199 5.54066 9.43466 4.698 7.88132C2.202 3.27732 3.98667 0.666656 6.66733 0.666656C9.29533 0.666656 11.1247 3.18066 8.63533 7.88132L7.908 9.33332H6.66666C6.29867 9.33332 6 9.63199 6 9.99999V10.6667C6 11.0347 6.29867 11.3333 6.66666 11.3333H6.824L7.95733 14.6667ZM10.3213 11.716C10.3213 11.532 10.172 11.3827 9.988 11.3827C9.804 11.3827 9.65467 11.532 9.65467 11.716V13.716C9.65467 13.9 9.804 14.0493 9.988 14.0493C10.172 14.0493 10.3213 13.9 10.3213 13.716V11.716ZM11.6547 11.6667C11.6547 11.4827 11.5053 11.3333 11.3213 11.3333C11.1373 11.3333 10.988 11.4827 10.988 11.6667V13.6667C10.988 13.8507 11.1373 14 11.3213 14C11.5053 14 11.6547 13.8507 11.6547 13.6667V11.6667ZM13.012 11.6667C13.012 11.4827 12.8627 11.3333 12.6787 11.3333C12.4947 11.3333 12.3453 11.4827 12.3453 11.6667V13.6667C12.3453 13.8507 12.4947 14 12.6787 14C12.8627 14 13.012 13.8507 13.012 13.6667V11.6667Z" fill="#9FA2B4"/>
</svg>
