<svg width="34" height="25" viewBox="0 0 34 25" fill="none" xmlns="http://www.w3.org/2000/svg">
<path d="M13.8889 22.9167C13.8889 24.0681 12.9556 25 11.8056 25C10.6556 25 9.72222 24.0681 9.72222 22.9167C9.72222 21.7667 10.6556 20.8333 11.8056 20.8333C12.9556 20.8333 13.8889 21.7667 13.8889 22.9167ZM18.75 20.8333C17.6 20.8333 16.6667 21.7653 16.6667 22.9167C16.6667 24.0681 17.6 25 18.75 25C19.9 25 20.8333 24.0681 20.8333 22.9167C20.8333 21.7667 19.9 20.8333 18.75 20.8333ZM20.6056 13.8889L23.3514 4.16667H0L4.08056 13.8889H20.6056ZM27.5069 0L22.7403 16.6667H5.24444L6.40972 19.4444H24.7972L29.6222 2.77778H32.3014L33.3333 0H27.5069Z" fill="#00429D"/>
</svg>
