<svg width="29" height="24" viewBox="0 0 29 24" fill="none" xmlns="http://www.w3.org/2000/svg">
<path d="M26.1938 2.99954C23.2117 -0.00936782 18.3603 -0.00936782 15.379 2.99954L14.6865 3.69801L13.9944 2.99954C11.013 -0.00977504 6.16128 -0.00977504 3.17992 2.99954C0.259091 5.94736 0.240125 10.62 3.13593 13.8688C5.77711 16.8308 13.5667 23.2302 13.8972 23.5011C14.1215 23.6852 14.3915 23.7748 14.6598 23.7748C14.6687 23.7748 14.6776 23.7748 14.6861 23.7744C14.9637 23.7874 15.2434 23.6913 15.475 23.5011C15.8055 23.2302 23.5958 16.8308 26.2378 13.8683C29.1332 10.62 29.1143 5.94736 26.1938 2.99954ZM24.438 12.234C22.3788 14.5428 16.7183 19.3046 14.6861 20.9943C12.6538 19.305 6.99459 14.5436 4.93572 12.2344C2.9156 9.96833 2.89663 6.74113 4.89174 4.72758C5.91068 3.69964 7.24882 3.18525 8.58696 3.18525C9.9251 3.18525 11.2632 3.69923 12.2822 4.72758L13.8043 6.26381C13.9855 6.44667 14.2139 6.55582 14.4536 6.5941C14.8426 6.67841 15.2648 6.56885 15.5674 6.26421L17.0904 4.72758C19.1287 2.67128 22.4441 2.67169 24.4812 4.72758C26.4763 6.74113 26.4574 9.96833 24.438 12.234Z" fill="#B3B3B3"/>
</svg>
