<svg width="107" height="107" viewBox="0 0 107 107" fill="none" xmlns="http://www.w3.org/2000/svg">
<path d="M13.3749 0H70.1951L100.312 30.0002V100.313C100.312 104.007 97.3164 107 93.6248 107H13.3749C9.68327 107 6.68744 104.007 6.68744 100.313V6.68744C6.68744 2.99272 9.68362 0 13.3749 0Z" fill="#E2574C"/>
<path d="M100.216 30.0936H76.9064C73.2148 30.0936 70.2189 27.0978 70.2189 23.4062V0.0667725L100.216 30.0936Z" fill="#B53629"/>
<path d="M75.2277 50.7012C76.348 50.7012 76.8963 49.7249 76.8963 48.7786C76.8963 47.7988 76.3244 46.8525 75.2277 46.8525H68.8478C67.6006 46.8525 66.9051 47.8856 66.9051 49.026V64.7047C66.9051 66.1025 67.7009 66.8782 68.7776 66.8782C69.8477 66.8782 70.6469 66.1025 70.6469 64.7047V60.4014H74.5056C75.7027 60.4014 76.3013 59.4216 76.3013 58.4487C76.3013 57.4959 75.7027 56.5493 74.5056 56.5493H70.6469V50.7012C70.6469 50.7012 75.2277 50.7012 75.2277 50.7012ZM53.6638 46.8525H48.9959C47.7286 46.8525 46.829 47.722 46.829 49.0125V64.7182C46.829 66.3198 48.123 66.8214 49.0492 66.8214H53.9479C59.7458 66.8214 63.5744 63.0063 63.5744 57.1177C63.5713 50.8918 59.9669 46.8525 53.6638 46.8525ZM53.888 62.9496H51.0423V50.7247H53.6071C57.4893 50.7247 59.1777 53.3296 59.1777 56.924C59.1777 60.288 57.5191 62.9496 53.888 62.9496ZM36.788 46.8525H32.1636C30.8562 46.8525 30.1272 47.7151 30.1272 49.026V64.7047C30.1272 66.1025 30.9631 66.8782 32.0865 66.8782C33.2099 66.8782 34.0458 66.1025 34.0458 64.7047V60.1271H36.9447C40.5225 60.1271 43.4751 57.5924 43.4751 53.5164C43.4754 49.5277 40.6266 46.8525 36.788 46.8525ZM36.7112 56.4493H34.0461V50.5341H36.7112C38.3563 50.5341 39.4029 51.818 39.4029 53.4933C39.3994 55.1654 38.3563 56.4493 36.7112 56.4493Z" fill="white"/>
</svg>
