<svg width="107" height="107" viewBox="0 0 107 107" fill="none" xmlns="http://www.w3.org/2000/svg">
<g clip-path="url(#clip0_601_84)">
<path d="M56.2983 1.23502H63.19V12.1751C76.1849 12.248 89.1915 12.0409 102.174 12.2354C104.97 11.968 107.158 14.1434 106.878 16.9392C107.085 39.6459 106.83 62.3644 107 85.0838C106.878 87.5393 107.243 90.2621 105.833 92.4375C104.058 93.726 101.749 93.5558 99.6697 93.6531C87.514 93.5928 75.3584 93.6171 63.19 93.6171V105.773H55.6302C37.105 102.393 18.5428 99.306 0.00586276 96.0482C-0.00677913 67.6896 0.00586276 39.3299 0.00586276 10.9829C18.7606 7.73878 37.5173 4.43244 56.2983 1.23502Z" fill="#D24625"/>
<path d="M63.19 15.8218H103.304V89.9714H63.19V80.2468H92.3636V75.3846H63.19V69.3067H92.3636V64.4445H63.2027C63.19 62.062 63.19 59.6795 63.1793 57.2969C67.993 58.7916 73.4747 58.7556 77.7778 55.8616C82.4339 53.1028 84.865 47.8389 85.2657 42.5876C79.9298 42.5507 74.593 42.5633 69.2688 42.5633C69.2572 37.2751 69.3291 31.9879 69.1599 26.7123C67.1664 27.1013 65.1729 27.5146 63.191 27.9396V15.8218H63.19Z" fill="white"/>
<path d="M71.7116 24.1723C80.1603 24.5613 87.2582 31.6718 87.7085 40.0962C82.3716 40.1575 77.0358 40.1331 71.699 40.1331C71.699 34.809 71.6873 29.4848 71.7116 24.1723Z" fill="#D24625"/>
<path d="M19.5025 33.3503C26.1036 33.6663 34.102 30.7363 39.572 35.6842C44.8116 42.0421 43.4259 53.7349 35.6579 57.541C32.8991 58.9501 29.7386 58.7566 26.7357 58.6584C26.723 63.4117 26.7123 68.1641 26.723 72.9175C24.3125 72.7081 21.9015 72.5055 19.4899 72.3097C19.381 59.3265 19.3576 46.3325 19.5025 33.3503V33.3503Z" fill="white"/>
<path d="M26.723 39.927C29.1181 39.8171 32.0841 39.3805 33.7013 41.6288C35.087 44.0113 35.0141 47.1474 33.8588 49.6029C32.4731 52.107 29.3369 51.8638 26.9175 52.1556C26.6617 48.0829 26.687 44.0103 26.723 39.927Z" fill="#D24625"/>
</g>
<defs>
<clipPath id="clip0_601_84">
<rect width="107" height="107" fill="white"/>
</clipPath>
</defs>
</svg>
