<svg width="107" height="107" viewBox="0 0 107 107" fill="none" xmlns="http://www.w3.org/2000/svg">
<path d="M96.3201 10.0313H32.4511C31.9277 10.0308 31.4093 10.1335 30.9256 10.3334C30.4418 10.5333 30.0022 10.8265 29.6318 11.1963C29.2613 11.5661 28.9674 12.0052 28.7667 12.4886C28.566 12.972 28.4624 13.4902 28.462 14.0137V31.7656L65.474 42.6328L100.313 31.7656V14.0137C100.312 13.49 100.208 12.9715 100.008 12.4879C99.8066 12.0042 99.5123 11.565 99.1416 11.1951C98.7708 10.8253 98.3308 10.5321 97.8466 10.3324C97.3625 10.1327 96.8438 10.0304 96.3201 10.0313V10.0313Z" fill="#41A5EE"/>
<path d="M100.313 31.7656H28.462V53.5L65.474 60.0203L100.313 53.5V31.7656Z" fill="#2B7CD3"/>
<path d="M28.462 53.5V75.2344L63.2972 79.5812L100.313 75.2344V53.5H28.462Z" fill="#185ABD"/>
<path d="M32.4511 96.9687H96.3167C96.8407 96.9701 97.3598 96.8681 97.8443 96.6686C98.3288 96.4691 98.7693 96.176 99.1404 95.8061C99.5115 95.4362 99.8061 94.9968 100.007 94.5129C100.208 94.0291 100.312 93.5103 100.313 92.9863V92.9863V75.2344H28.462V92.9863C28.4624 93.5098 28.566 94.028 28.7667 94.5114C28.9674 94.9948 29.2613 95.4339 29.6318 95.8037C30.0022 96.1735 30.4418 96.4667 30.9256 96.6666C31.4093 96.8665 31.9277 96.9692 32.4511 96.9687V96.9687Z" fill="#103F91"/>
<path opacity="0.1" d="M54.9512 27.4188H28.462V81.7547H54.9512C56.0067 81.7495 57.0176 81.3285 57.7649 80.5831C58.5122 79.8377 58.9357 78.8278 58.9436 77.7723V31.4012C58.9357 30.3457 58.5122 29.3358 57.7649 28.5904C57.0176 27.845 56.0067 27.424 54.9512 27.4188V27.4188Z" fill="black"/>
<path opacity="0.2" d="M52.7744 29.5922H28.462V83.9281H52.7744C53.8299 83.9229 54.8409 83.5019 55.5882 82.7565C56.3355 82.0111 56.7589 81.0012 56.7668 79.9457V33.5746C56.7589 32.5191 56.3355 31.5092 55.5882 30.7638C54.8409 30.0184 53.8299 29.5974 52.7744 29.5922V29.5922Z" fill="black"/>
<path opacity="0.2" d="M52.7744 29.5922H28.462V79.5812H52.7744C53.8299 79.576 54.8409 79.1551 55.5882 78.4096C56.3355 77.6642 56.7589 76.6543 56.7668 75.5988V33.5746C56.7589 32.5191 56.3355 31.5092 55.5882 30.7638C54.8409 30.0184 53.8299 29.5974 52.7744 29.5922V29.5922Z" fill="black"/>
<path opacity="0.2" d="M50.5976 29.5922H28.462V79.5812H50.5976C51.6531 79.576 52.6641 79.1551 53.4114 78.4096C54.1587 77.6642 54.5822 76.6543 54.5901 75.5988V33.5746C54.5822 32.5191 54.1587 31.5092 53.4114 30.7638C52.6641 30.0184 51.6531 29.5974 50.5976 29.5922V29.5922Z" fill="black"/>
<path d="M10.6799 29.5922H50.5976C51.655 29.5913 52.6695 30.0103 53.4181 30.757C54.1668 31.5038 54.5883 32.5172 54.5901 33.5746V73.4254C54.5883 74.4828 54.1668 75.4962 53.4181 76.243C52.6695 76.9897 51.655 77.4087 50.5976 77.4078H10.6799C10.1562 77.4087 9.6375 77.3064 9.15338 77.1067C8.66925 76.907 8.22922 76.6138 7.85845 76.244C7.48767 75.8741 7.19341 75.4348 6.9925 74.9512C6.79158 74.4676 6.68794 73.9491 6.6875 73.4254V33.5746C6.68794 33.0509 6.79158 32.5324 6.9925 32.0488C7.19341 31.5652 7.48767 31.1259 7.85845 30.756C8.22922 30.3862 8.66925 30.0931 9.15338 29.8934C9.6375 29.6937 10.1562 29.5913 10.6799 29.5922V29.5922Z" fill="url(#paint0_linear_527_133)"/>
<path d="M23.0719 60.1474C23.1488 60.7626 23.2023 61.2976 23.2257 61.7557H23.3193C23.3528 61.321 23.4263 60.7961 23.5367 60.1842C23.647 59.5722 23.744 59.054 23.8343 58.6293L28.0307 40.5497H33.4609L37.8078 58.3585C38.061 59.4601 38.2419 60.577 38.3495 61.7022H38.423C38.5029 60.6069 38.6537 59.5179 38.8744 58.4421L42.3486 40.5262H47.2873L41.1883 66.4336H35.4137L31.2774 49.2936C31.1571 48.7987 31.0211 48.1545 30.8695 47.3609C30.7179 46.5673 30.6243 45.9877 30.5886 45.6221H30.5184C30.4716 46.0434 30.378 46.6687 30.2375 47.498C30.0971 48.3306 29.9868 48.9425 29.9032 49.3437L26.0144 66.4437H20.1428L14.0103 40.5497H19.0259L22.8077 58.6661C22.9206 59.1551 23.0088 59.6495 23.0719 60.1474Z" fill="white"/>
<defs>
<linearGradient id="paint0_linear_527_133" x1="15.0268" y1="26.4624" x2="46.2508" y2="80.5376" gradientUnits="userSpaceOnUse">
<stop stop-color="#2368C4"/>
<stop offset="0.5" stop-color="#1A5DBE"/>
<stop offset="1" stop-color="#1146AC"/>
</linearGradient>
</defs>
</svg>
