<svg width="107" height="107" viewBox="0 0 107 107" fill="none" xmlns="http://www.w3.org/2000/svg">
<path d="M21.0324 0C18.0775 0 15.6824 2.39517 15.6824 5.35V101.65C15.6824 104.605 18.0775 107 21.0324 107H99.4991C102.454 107 104.849 104.605 104.849 101.65V17.8333L87.0158 0H21.0324Z" fill="#ECEDEF"/>
<path d="M92.3659 17.8333H104.849L87.0159 0V12.4833C87.0159 15.4381 89.411 17.8333 92.3659 17.8333Z" fill="#D9DCDF"/>
<path d="M83.4491 8.91675H15.6824V41.0167H83.4491C84.4341 41.0167 85.2324 40.2182 85.2324 39.2335V10.7C85.2324 9.71507 84.4338 8.91675 83.4491 8.91675Z" fill="#C6CACF"/>
<path d="M79.8824 37.45H3.93786C2.34916 37.45 1.55335 35.5292 2.67685 34.4057L15.6824 21.4L2.67685 8.39428C1.55335 7.27078 2.34916 5.35001 3.93786 5.35001H79.8824C80.8673 5.35001 81.6656 6.14854 81.6656 7.13327V35.6665C81.6658 36.6515 80.8673 37.45 79.8824 37.45Z" fill="#FFC44F"/>
<path d="M40.6491 26.75H35.5399L42.019 18.9751C42.4618 18.4435 42.5576 17.7037 42.2641 17.0769C41.9705 16.4504 41.3411 16.05 40.6491 16.05H31.7324C30.7474 16.05 29.9491 16.8485 29.9491 17.8333C29.9491 18.818 30.7476 19.6165 31.7324 19.6165H36.8416L30.3625 27.3914C29.9197 27.923 29.8239 28.6628 30.1174 29.2896C30.411 29.9161 31.0404 30.3165 31.7324 30.3165H40.6491C41.6341 30.3165 42.4324 29.518 42.4324 28.5333C42.4324 27.5485 41.6339 26.75 40.6491 26.75Z" fill="white"/>
<path d="M45.9991 16.05C45.0141 16.05 44.2158 16.8485 44.2158 17.8333V28.5333C44.2158 29.5182 45.0144 30.3165 45.9991 30.3165C46.984 30.3165 47.7823 29.518 47.7823 28.5333V17.8333C47.7823 16.8485 46.9838 16.05 45.9991 16.05Z" fill="white"/>
<path d="M58.4824 16.05H51.3492C50.3642 16.05 49.5659 16.8485 49.5659 17.8333V28.5333C49.5659 29.5182 50.3644 30.3165 51.3492 30.3165C52.3341 30.3165 53.1324 29.518 53.1324 28.5333V24.9665H58.4824C59.4674 24.9665 60.2657 24.168 60.2657 23.1833V17.8333C60.2659 16.8485 59.4674 16.05 58.4824 16.05ZM56.6992 21.4H53.1324V19.6167H56.6992V21.4Z" fill="white"/>
<path d="M87.0148 69.55C86.6121 69.55 86.2075 69.4144 85.8741 69.1366L75.1741 60.2199C74.7675 59.8811 74.5323 59.3791 74.5323 58.8498C74.5323 58.3204 74.7675 57.8187 75.1741 57.4797L85.8741 48.563C86.6307 47.9324 87.7552 48.0348 88.3857 48.7912C89.0164 49.5479 88.914 50.6724 88.1575 51.3029L79.1014 58.85L88.1573 66.3966C88.914 67.0273 89.0164 68.1517 88.3855 68.9084C88.0332 69.3316 87.5257 69.55 87.0148 69.55Z" fill="#A1A7AF"/>
<path d="M65.6159 65.9833C64.631 65.9833 63.8326 65.1847 63.8326 64.2V58.85C63.8326 57.8651 64.6312 57.0667 65.6159 57.0667C66.6006 57.0667 67.3992 57.8653 67.3992 58.85V64.2C67.3992 65.185 66.6006 65.9833 65.6159 65.9833Z" fill="#55606E"/>
<path d="M76.3158 57.0667H72.7491V53.5C72.7491 52.5151 71.9506 51.7167 70.9659 51.7167C69.9809 51.7167 69.1826 52.5153 69.1826 53.5V57.0667H62.0493V53.5C62.0493 52.5151 61.2508 51.7167 60.2661 51.7167C59.2813 51.7167 58.4828 52.5153 58.4828 53.5V57.0667H51.3495V53.5C51.3495 52.5151 50.551 51.7167 49.5663 51.7167C48.5813 51.7167 47.783 52.5153 47.783 53.5V57.0667H40.6497V53.5C40.6497 52.5151 39.8512 51.7167 38.8665 51.7167C37.8815 51.7167 37.0832 52.5153 37.0832 53.5V57.0667H33.5165C32.5315 57.0667 31.7332 57.8653 31.7332 58.85C31.7332 59.8349 32.5317 60.6333 33.5165 60.6333H42.4332V64.2C42.4332 65.1849 43.2317 65.9833 44.2165 65.9833C45.2014 65.9833 45.9997 65.1847 45.9997 64.2V60.6333H53.133V64.2C53.133 65.1849 53.9315 65.9833 54.9163 65.9833C55.901 65.9833 56.6995 65.1847 56.6995 64.2V60.6333H76.3163C77.3012 60.6333 78.0995 59.8347 78.0995 58.85C78.0991 57.8651 77.3006 57.0667 76.3158 57.0667Z" fill="#55606E"/>
<path d="M76.3158 73.0051C75.3923 73.0051 74.6439 72.2566 74.6439 71.3333V58.85C74.6439 57.9267 75.3923 57.1781 76.3158 57.1781C77.2393 57.1781 77.9877 57.9267 77.9877 58.85V71.3333C77.9877 72.2566 77.2393 73.0051 76.3158 73.0051Z" fill="#55606E"/>
<path d="M69.7046 76.161L75.0546 70.811C75.751 70.1147 76.8803 70.1147 77.5767 70.811L82.9267 76.161C83.261 76.4954 83.4489 76.9491 83.4489 77.422V96.3C83.4489 97.2849 82.6504 98.0833 81.6656 98.0833H70.9656C69.9807 98.0833 69.1824 97.2847 69.1824 96.3V77.422C69.1824 76.9491 69.3703 76.4954 69.7046 76.161Z" fill="#F79F4D"/>
<path d="M70.9658 96.3V77.4218L76.3158 72.0718L81.6658 77.4218V96.3H70.9658Z" fill="#FFC44F"/>
<path d="M76.3159 94.4051C75.3924 94.4051 74.644 93.6566 74.644 92.7333V89.1665C74.644 88.2432 75.3924 87.4946 76.3159 87.4946C77.2394 87.4946 77.9878 88.2432 77.9878 89.1665V92.7333C77.9878 93.6566 77.2394 94.4051 76.3159 94.4051Z" fill="#BF722A"/>
<path d="M76.3159 83.7051C75.3924 83.7051 74.644 82.9565 74.644 82.0333V78.4665C74.644 77.5432 75.3924 76.7946 76.3159 76.7946C77.2394 76.7946 77.9878 77.5432 77.9878 78.4665V82.0333C77.9878 82.9565 77.2394 83.7051 76.3159 83.7051Z" fill="#BF722A"/>
</svg>
