<svg width="20" height="20" viewBox="0 0 20 20" fill="none" xmlns="http://www.w3.org/2000/svg">
<g clip-path="url(#clip0_1202_51)">
<path fill-rule="evenodd" clip-rule="evenodd" d="M17.3731 1.56555C16.3967 0.589237 14.8138 0.589234 13.8375 1.56555L2.03953 13.3636C1.69053 13.7126 1.45264 14.1571 1.35585 14.641L0.866624 17.0871C0.633384 18.2533 1.66158 19.2816 2.82778 19.0483L5.2739 18.5591C5.75787 18.4623 6.20237 18.2244 6.55137 17.8754L18.3493 6.07739C19.3257 5.10108 19.3257 3.51817 18.3493 2.54185L17.3731 1.56555ZM15.016 2.74405C15.3415 2.41862 15.8691 2.41862 16.1946 2.74405L17.1708 3.72037C17.4963 4.0458 17.4963 4.57344 17.1708 4.89888L14.9445 7.1252L12.7897 4.97038L15.016 2.74405ZM11.6112 6.1489L3.21804 14.5421C3.10171 14.6584 3.02242 14.8066 2.99015 14.9679L2.50092 17.414L4.94704 16.9247C5.10837 16.8925 5.25653 16.8132 5.37287 16.6969L13.766 8.30371L11.6112 6.1489Z" fill="white"/>
</g>
<defs>
<clipPath id="clip0_1202_51">
<rect width="20" height="20" fill="white"/>
</clipPath>
</defs>
</svg>
