<svg width="143" height="143" viewBox="0 0 143 143" fill="none" xmlns="http://www.w3.org/2000/svg">
<path d="M140.617 1.19168H2.38333V15.4917H140.617V1.19168Z" fill="#556080"/>
<path d="M135.85 15.4917H7.14999V115.592H135.85V15.4917Z" fill="#ECF0F1"/>
<path d="M35.75 86.9917H21.45V98.9083H35.75V86.9917Z" fill="#B49ACA"/>
<path d="M57.2 86.9917H42.9V98.9083H57.2V86.9917Z" fill="#B49ACA"/>
<path d="M78.65 86.9917H64.35V98.9083H78.65V86.9917Z" fill="#B49ACA"/>
<path d="M100.1 86.9917H85.8V98.9083H100.1V86.9917Z" fill="#B49ACA"/>
<path d="M121.55 86.9917H107.25V98.9083H121.55V86.9917Z" fill="#B49ACA"/>
<path d="M35.75 75.075H21.45V86.9917H35.75V75.075Z" fill="#F3D55B"/>
<path d="M57.2 60.775H42.9V86.9917H57.2V60.775Z" fill="#71C285"/>
<path d="M78.65 46.475H64.35V86.9917H78.65V46.475Z" fill="#71C285"/>
<path d="M100.1 63.1584H85.8V86.9917H100.1V63.1584Z" fill="#F3D55B"/>
<path d="M121.55 32.175H107.25V86.9917H121.55V32.175Z" fill="#71C285"/>
<path d="M19.0667 53.625C18.4565 53.625 17.8464 53.3914 17.3817 52.9267C16.4498 51.9948 16.4498 50.4885 17.3817 49.5567L34.065 32.8733C34.9969 31.9414 36.5031 31.9414 37.435 32.8733C38.3669 33.8052 38.3669 35.3115 37.435 36.2434L20.7517 52.9267C20.2869 53.3914 19.6768 53.625 19.0667 53.625Z" fill="#D1D4D1"/>
<path d="M35.75 48.8584C34.432 48.8584 33.3667 47.793 33.3667 46.475V34.5584C33.3667 33.2404 34.432 32.175 35.75 32.175C37.068 32.175 38.1333 33.2404 38.1333 34.5584V46.475C38.1333 47.793 37.068 48.8584 35.75 48.8584Z" fill="#D1D4D1"/>
<path d="M35.75 36.9417H23.8333C22.5154 36.9417 21.45 35.8763 21.45 34.5584C21.45 33.2404 22.5154 32.175 23.8333 32.175H35.75C37.068 32.175 38.1333 33.2404 38.1333 34.5584C38.1333 35.8763 37.068 36.9417 35.75 36.9417Z" fill="#D1D4D1"/>
<path d="M140.617 117.975H2.38333C1.06535 117.975 0 116.91 0 115.592C0 114.274 1.06535 113.208 2.38333 113.208H140.617C141.935 113.208 143 114.274 143 115.592C143 116.91 141.935 117.975 140.617 117.975Z" fill="#556080"/>
<path d="M71.5 125.125C70.182 125.125 69.1167 124.06 69.1167 122.742V115.592C69.1167 114.274 70.182 113.208 71.5 113.208C72.818 113.208 73.8833 114.274 73.8833 115.592V122.742C73.8833 124.06 72.818 125.125 71.5 125.125Z" fill="#556080"/>
<path d="M71.5 141.808C66.2424 141.808 61.9667 137.533 61.9667 132.275C61.9667 127.017 66.2424 122.742 71.5 122.742C76.7576 122.742 81.0333 127.017 81.0333 132.275C81.0333 137.533 76.7576 141.808 71.5 141.808ZM71.5 127.508C68.8712 127.508 66.7333 129.646 66.7333 132.275C66.7333 134.904 68.8712 137.042 71.5 137.042C74.1288 137.042 76.2667 134.904 76.2667 132.275C76.2667 129.646 74.1288 127.508 71.5 127.508Z" fill="#556080"/>
</svg>
