<svg width="143" height="143" viewBox="0 0 143 143" fill="none" xmlns="http://www.w3.org/2000/svg">
<path d="M76.431 103.552H66.569V120.81H76.431V103.552Z" fill="#464655"/>
<path d="M118.345 49.3103H24.6552V56.7069H118.345V49.3103Z" fill="#464655"/>
<path d="M119.417 41.9138C120.854 41.9138 121.961 40.5716 121.612 39.1777C115.983 16.6866 95.7363 0 71.5 0C47.2637 0 27.0168 16.6866 21.3881 39.1777C21.0392 40.5716 22.1462 41.9138 23.583 41.9138H23.7238C27.3118 41.9138 30.0057 45.0194 29.7156 48.5953C29.29 53.8454 29.8771 59.3826 32.0021 65.1652C38.2935 82.2836 54.1471 94.0567 72.3811 93.6807C95.123 93.2113 113.414 74.6297 113.414 51.7759C113.414 50.7271 113.371 49.6888 113.29 48.6616C113.002 45.0367 115.775 41.9138 119.412 41.9138H119.417Z" fill="#C7CFE2"/>
<path d="M46.8448 51.7759C46.8448 27.8563 63.0874 7.78179 85.1285 1.83804C80.787 0.651205 76.223 0 71.5 0C47.2637 0 27.0168 16.6866 21.3881 39.1777C21.0392 40.5713 22.1462 41.9138 23.583 41.9138H23.7241C27.3118 41.9138 30.0057 45.0191 29.716 48.5953C29.2907 53.8454 29.8774 59.3826 32.0024 65.1652C37.7921 80.9186 51.6868 92.1182 68.0754 93.5152C55.2242 84.0939 46.8448 68.9319 46.8448 51.7759Z" fill="#AFB9D2"/>
<path d="M71.5 86.9828C52.0865 86.9828 36.293 71.1894 36.293 51.7759C36.293 32.3624 52.0865 16.5689 71.5 16.5689C90.9135 16.5689 106.707 32.3624 106.707 51.7759C106.707 71.1894 90.9135 86.9828 71.5 86.9828ZM71.5 26.6282C57.6333 26.6282 46.3523 37.9092 46.3523 51.7759C46.3523 65.6426 57.6333 76.9235 71.5 76.9235C85.3667 76.9235 96.6477 65.6426 96.6477 51.7759C96.6477 37.9092 85.3667 26.6282 71.5 26.6282Z" fill="#707487"/>
<path d="M71.5 77.2585C57.4484 77.2585 46.0173 65.8275 46.0173 51.7759C46.0173 37.7243 57.4484 26.2932 71.5 26.2932C85.5516 26.2932 96.9827 37.7243 96.9827 51.7759C96.9827 65.8275 85.5516 77.2585 71.5 77.2585ZM71.5 36.4863C63.0689 36.4863 56.2104 43.3447 56.2104 51.7759C56.2104 60.207 63.0689 67.0655 71.5 67.0655C79.9311 67.0655 86.7896 60.207 86.7896 51.7759C86.7896 43.3447 79.9311 36.4863 71.5 36.4863Z" fill="#464655"/>
<path d="M71.5 67.3965C80.127 67.3965 87.1206 60.4029 87.1206 51.7759C87.1206 43.1489 80.127 36.1553 71.5 36.1553C62.873 36.1553 55.8794 43.1489 55.8794 51.7759C55.8794 60.4029 62.873 67.3965 71.5 67.3965Z" fill="#5B5D6E"/>
<path d="M71.5 59.1724C75.585 59.1724 78.8966 55.8609 78.8966 51.7759C78.8966 47.6909 75.585 44.3793 71.5 44.3793C67.415 44.3793 64.1034 47.6909 64.1034 51.7759C64.1034 55.8609 67.415 59.1724 71.5 59.1724Z" fill="#464655"/>
<path d="M75.1983 51.7759C77.2408 51.7759 78.8966 50.1201 78.8966 48.0776C78.8966 46.0351 77.2408 44.3793 75.1983 44.3793C73.1558 44.3793 71.5 46.0351 71.5 48.0776C71.5 50.1201 73.1558 51.7759 75.1983 51.7759Z" fill="white"/>
<path d="M96.872 6.6797C89.3833 2.43562 80.7355 0 71.5 0C62.2645 0 53.6167 2.43562 46.128 6.6797L48.0409 8.59264C50.1384 10.6902 53.2583 11.2619 56.0347 10.2174C60.8514 8.40464 66.0561 7.39655 71.5 7.39655C76.9439 7.39655 82.1486 8.40464 86.9656 10.2171C89.7417 11.2619 92.8619 10.6899 94.9594 8.59233L96.872 6.6797Z" fill="#707487"/>
<path d="M120.81 51.7759C120.81 50.9068 120.788 50.0423 120.743 49.1827C120.674 47.8224 119.468 46.7786 118.155 46.8473C116.794 46.9172 115.748 48.0763 115.819 49.4355C116.063 54.1921 115.582 59.1302 114.097 64.2495C109.314 80.7448 95.0907 93.215 78.0931 95.6765C50.7083 99.6429 27.1207 78.4124 27.1207 51.7759C27.1207 50.9909 27.141 50.2109 27.1808 49.4355C27.2517 48.0763 26.2057 46.9169 24.8453 46.8473C23.538 46.745 22.3256 47.8212 22.2571 49.1827C22.2125 50.0423 22.1897 50.9068 22.1897 51.7759C22.1897 75.733 39.3826 95.6987 62.0669 100.117C63.2399 100.346 64.1034 101.34 64.1034 102.535V103.552C64.1034 104.913 65.2074 106.017 66.569 106.017H76.431C77.7926 106.017 78.8965 104.913 78.8965 103.552V102.535C78.8965 101.34 79.7601 100.346 80.9331 100.117C103.617 95.6987 120.81 75.733 120.81 51.7759Z" fill="#5B5D6E"/>
<path d="M78.8965 123.276C78.8965 121.914 77.7926 120.81 76.431 120.81H66.569C65.2074 120.81 64.1034 121.914 64.1034 123.276C64.1034 124.637 62.9995 125.741 61.6379 125.741H59.1724V128.207H83.8276V125.741H81.3621C80.0005 125.741 78.8965 124.637 78.8965 123.276Z" fill="#5B5D6E"/>
<path d="M86.2931 133.138H56.7069V128.207C56.7069 126.845 57.8108 125.741 59.1724 125.741H83.8276C85.1892 125.741 86.2931 126.845 86.2931 128.207V133.138Z" fill="#464655"/>
<path d="M101.086 143H41.9138C40.5522 143 39.4483 141.896 39.4483 140.534V138.069C39.4483 133.984 42.7598 130.672 46.8448 130.672H96.1552C100.24 130.672 103.552 133.984 103.552 138.069V140.534C103.552 141.896 102.448 143 101.086 143Z" fill="#5B5D6E"/>
</svg>
