<svg width="143" height="143" viewBox="0 0 143 143" fill="none" xmlns="http://www.w3.org/2000/svg">
<path d="M106.544 49.6156C107.657 49.0092 108.903 48.6683 110.218 48.6683C114.155 48.6683 117.495 51.7696 118.46 55.9329C118.545 56.4247 118.626 56.9224 118.699 57.4202C118.699 57.4202 118.699 57.4202 118.699 57.4232C118.729 57.7461 118.744 58.0779 118.744 58.4098C118.744 63.7557 114.906 68.1483 110.218 68.1483C109.669 68.1483 109.135 68.0879 108.613 67.9733C104.658 67.1135 101.659 63.1342 101.659 58.4098C101.659 54.5512 103.656 51.1904 106.544 49.6156Z" fill="#34495E"/>
<path d="M103.123 61.5425C103.123 57.6839 105.12 54.3231 108.007 52.7483C109.12 52.1419 110.366 51.801 111.681 51.801C114.372 51.801 116.782 53.2497 118.348 55.4955C117.257 51.5545 114.016 48.6683 110.218 48.6683C108.903 48.6683 107.657 49.0092 106.543 49.6156C103.657 51.1904 101.659 54.5512 101.659 58.4098C101.659 60.6818 102.354 62.78 103.514 64.4432C103.26 63.5255 103.123 62.5513 103.123 61.5425Z" fill="#2C3E50"/>
<path d="M119.697 70.8393L119.727 85.1393H114.152V91.336C114.152 87.4834 111.874 84.1498 108.598 82.6081L108.61 82.581V67.9853L108.613 67.9733C109.135 68.0879 109.669 68.1482 110.218 68.1482C114.906 68.1482 118.744 63.7557 118.744 58.4098C118.744 58.0779 118.729 57.7461 118.698 57.4232C119.353 61.7676 119.697 66.2536 119.697 70.8393Z" fill="#FEBE76"/>
<path d="M110.521 70.248L110.524 70.2359C111.045 70.3506 111.58 70.4109 112.129 70.4109C115.292 70.4109 118.065 68.4101 119.537 65.4678C119.376 62.7405 119.095 60.0558 118.698 57.4232C118.729 57.7461 118.744 58.0779 118.744 58.4098C118.744 63.7557 114.906 68.1482 110.218 68.1482C109.669 68.1482 109.135 68.0879 108.613 67.9733L108.61 67.9853V82.581L108.598 82.6081C109.288 82.9331 109.931 83.3419 110.521 83.8137V70.248Z" fill="#E8A664"/>
<path d="M112.734 86.3234C113.63 87.7857 114.152 89.5005 114.152 91.336V87.8503C113.735 87.2918 113.26 86.7796 112.734 86.3234Z" fill="#E8A664"/>
<path d="M119.727 85.1393C122.777 85.1393 125.272 87.6313 125.272 90.6813V115.079C125.272 118.129 122.777 120.624 119.727 120.624H114.152V114.424V91.336V85.1393H119.727Z" fill="#34495E"/>
<path d="M116.813 117.177V94.0889V87.8922H122.388C123.251 87.8922 124.068 88.098 124.798 88.4537C123.936 86.5066 121.985 85.1393 119.727 85.1393H114.152V91.336V114.424V120.624H116.812V117.177H116.813Z" fill="#2C3E50"/>
<path d="M114.152 91.336V114.424C114.152 119.737 109.823 124.099 104.51 124.099H94.8682V81.694H104.51C105.97 81.694 107.355 82.0199 108.598 82.6081C111.874 84.1498 114.152 87.4834 114.152 91.336Z" fill="#57606F"/>
<path d="M97.9059 84.7863H107.548C109.008 84.7863 110.393 85.1122 111.636 85.7004C112.013 85.8778 112.375 86.0818 112.723 86.3044C111.739 84.7064 110.306 83.4121 108.598 82.6081C107.355 82.0199 105.97 81.694 104.51 81.694H94.8682V124.099H97.9056V84.7863H97.9059Z" fill="#414A56"/>
<path d="M66.6724 32.884C80.8336 32.884 92.3158 44.3632 92.3158 58.5274C92.3158 72.6887 80.8336 84.1709 66.6724 84.1709C52.5081 84.1709 41.0289 72.6887 41.0289 58.5274C41.0289 44.3632 52.5081 32.884 66.6724 32.884Z" fill="#FF7979"/>
<path d="M43.1407 62.8515C43.1407 48.6873 54.62 37.2081 68.7842 37.2081C78.0484 37.2081 86.165 42.1223 90.6714 49.4859C87.0146 39.7851 77.6508 32.884 66.6724 32.884C52.5082 32.884 41.0289 44.3632 41.0289 58.5274C41.0289 63.4247 42.4034 68.0004 44.7852 71.8931C43.7251 69.0805 43.1407 66.0346 43.1407 62.8515Z" fill="#D65B5B"/>
<path d="M77.8349 57.6224L59.7336 67.2764V49.1751L77.8349 57.6224Z" fill="#FFD8A8"/>
<path d="M62.2419 53.3987L74.7818 59.2506L77.8349 57.6224L59.7336 49.1751V67.2764L62.2419 65.9387V53.3987Z" fill="#EABD8C"/>
<path d="M118.46 55.9329C117.495 51.7696 114.155 48.6683 110.218 48.6683C108.903 48.6683 107.657 49.0092 106.543 49.6156C104.248 40.0068 100.214 31.4842 94.9014 24.8259C87.4919 15.5128 77.684 9.83805 66.9621 9.83805C56.2371 9.83805 46.4292 15.5128 39.0197 24.8259C33.7161 31.5083 29.6523 40.0491 27.3565 49.7061C26.2191 49.0424 24.9339 48.6683 23.5733 48.6683C19.7057 48.6683 16.4143 51.7395 15.4398 55.8726C20.6832 24.8651 41.8435 1.50845 66.9621 1.50845C92.0927 1.50845 113.244 24.8953 118.46 55.9329Z" fill="#FEBE76"/>
<path d="M19.1231 50.155C26.4559 23.4104 45.9948 4.16331 68.7963 4.16331C83.7148 4.16331 97.2307 12.4048 106.843 25.5961C97.1574 10.8665 82.8568 1.50845 66.9621 1.50845C41.8435 1.50845 20.6832 24.8651 15.4398 55.8726C16.0037 53.4808 17.3447 51.4462 19.1231 50.155Z" fill="#E8A664"/>
<path d="M97.9445 29.0652C101.763 34.9587 104.71 41.9385 106.543 49.6156C106.87 49.4376 107.21 49.2855 107.557 49.1552C105.386 41.5445 102.1 34.7095 97.9445 29.0652Z" fill="#E8A664"/>
<path d="M117.723 53.8132C118.037 54.4785 118.287 55.1883 118.46 55.9329C118.368 55.3871 118.27 54.8444 118.169 54.3038C118.025 54.1342 117.877 53.9707 117.723 53.8132Z" fill="#E8A664"/>
<path d="M25.311 67.9401C24.7499 68.0758 24.1707 68.1483 23.5733 68.1483C18.9484 68.1483 15.1442 63.7557 15.1442 58.4098C15.1442 58.087 15.1592 57.7702 15.1864 57.4564C15.2679 56.9255 15.3493 56.3975 15.4398 55.8726C16.4143 51.7395 19.7057 48.6683 23.5733 48.6683C24.9339 48.6683 26.2191 49.0424 27.3565 49.7061C30.1109 51.3201 31.9995 54.6266 31.9995 58.4098C31.9995 63.0708 29.1304 67.0079 25.311 67.9401Z" fill="#34495E"/>
<path d="M16.8867 61.4266C16.8867 61.1038 16.9017 60.7871 16.9289 60.4733C17.0103 59.9423 17.0918 59.4144 17.1823 58.8895C18.1568 54.7563 21.4482 51.6852 25.3158 51.6852C26.6764 51.6852 27.9616 52.0592 29.099 52.723C29.9304 53.2102 30.6813 53.854 31.3269 54.6163C30.5453 52.4937 29.1331 50.7469 27.3567 49.7061C26.2194 49.0424 24.9342 48.6683 23.5736 48.6683C19.7059 48.6683 16.4145 51.7395 15.4401 55.8726C15.3496 56.3975 15.2681 56.9255 15.1866 57.4564C15.1595 57.7702 15.1444 58.087 15.1444 58.4098C15.1444 61.0381 16.0655 63.4344 17.5498 65.1932C17.1232 64.0323 16.8867 62.7592 16.8867 61.4266Z" fill="#2C3E50"/>
<path d="M14.224 85.1393C14.218 85.1393 14.2089 85.1393 14.2029 85.1393L14.1938 84.7109V70.8393C14.1938 66.2657 14.5348 61.7887 15.1864 57.4564C15.1592 57.7702 15.1442 58.0869 15.1442 58.4098C15.1442 63.7557 18.9484 68.1482 23.5733 68.1482C24.1707 68.1482 24.7499 68.0758 25.311 67.9401V82.7436L25.3141 82.7469C22.0558 84.3821 19.8022 87.7519 19.8022 91.6316V85.1393H14.224Z" fill="#FEBE76"/>
<path d="M14.6195 62.0605C14.9912 67.0208 18.6338 70.9639 23.0152 70.9639C23.6125 70.9639 24.1918 70.8915 24.7529 70.7557V83.0531C24.9366 82.9457 25.1234 82.8428 25.314 82.7469L25.311 82.7436V67.9401C24.7499 68.0758 24.1706 68.1482 23.5733 68.1482C18.9484 68.1482 15.1441 63.7557 15.1441 58.4098C15.1441 58.0869 15.1592 57.7702 15.1864 57.4564C14.9583 58.9736 14.7704 60.5098 14.6195 62.0605Z" fill="#E8A664"/>
<path d="M19.8022 91.1887V91.6319C19.8022 91.4648 19.8119 91.3001 19.8203 91.135C19.814 91.1528 19.8086 91.1706 19.8022 91.1887Z" fill="#E8A664"/>
<path d="M19.8022 91.6316V114.128V120.624H14.224C11.1769 120.624 8.6488 118.129 8.6488 115.049V90.7145C8.6488 87.6672 11.1649 85.1514 14.2029 85.1393C14.2089 85.1393 14.218 85.1393 14.224 85.1393H19.8022V91.6316Z" fill="#34495E"/>
<path d="M10.5594 117.462V93.128C10.5594 90.0807 13.0755 87.5649 16.1135 87.5528C16.1195 87.5528 16.1285 87.5528 16.1346 87.5528H19.8022V85.1393H14.224C14.218 85.1393 14.2089 85.1393 14.2029 85.1393C11.1649 85.1514 8.6488 87.6675 8.6488 90.7145V115.048C8.6488 116.909 9.57468 118.552 10.9769 119.564C10.7096 118.915 10.5594 118.206 10.5594 117.462Z" fill="#2C3E50"/>
<path d="M39.7408 81.694V124.099H29.77C24.2944 124.099 19.8022 119.607 19.8022 114.128V91.6316C19.8022 87.7519 22.0559 84.3821 25.3141 82.7469C26.6566 82.0742 28.1711 81.694 29.77 81.694H39.7408Z" fill="#57606F"/>
<path d="M21.9141 116.605V94.1085C21.9141 90.2288 24.1677 86.8589 27.4259 85.2238C28.7684 84.551 30.2829 84.1709 31.8818 84.1709H39.7408V81.694H29.77C28.1711 81.694 26.6566 82.0742 25.3141 82.7469C22.0559 84.3821 19.8022 87.7519 19.8022 91.6316V114.128C19.8022 117.164 21.1828 119.895 23.3441 121.729C22.4378 120.228 21.9141 118.474 21.9141 116.605Z" fill="#414A56"/>
<path d="M89.299 129.424H83.2653V135.458H89.299V129.424Z" fill="black"/>
<path d="M80.2484 129.424H74.2146V135.458H80.2484V129.424Z" fill="black"/>
<path d="M71.1977 129.424H65.1639V135.458H71.1977V129.424Z" fill="black"/>
<path d="M62.147 129.424H56.1133V135.458H62.147V129.424Z" fill="black"/>
<path d="M53.0965 129.424H47.0627V135.458H53.0965V129.424Z" fill="black"/>
<path d="M104.51 125.608H94.8682C94.0349 125.608 93.3597 124.933 93.3597 124.099V81.694C93.3597 80.8608 94.0349 80.1856 94.8682 80.1856H104.51C106.166 80.1856 107.758 80.5422 109.243 81.2448C113.14 83.0785 115.66 87.0399 115.66 91.336C115.66 92.1692 114.985 92.8444 114.152 92.8444C113.318 92.8444 112.643 92.1692 112.643 91.336C112.643 88.2029 110.803 85.3131 107.955 83.9733C106.874 83.4613 105.716 83.2025 104.51 83.2025H96.3763V122.591H104.51C108.995 122.591 112.643 118.927 112.643 114.424C112.643 113.591 113.318 112.916 114.152 112.916C114.985 112.916 115.66 113.591 115.66 114.424C115.66 120.591 110.659 125.608 104.51 125.608Z" fill="black"/>
<path d="M119.727 122.132H114.152C113.319 122.132 112.644 121.457 112.644 120.624V85.1393C112.644 84.306 113.319 83.6309 114.152 83.6309H119.727C123.616 83.6309 126.78 86.7935 126.78 90.6813V115.079C126.781 118.968 123.616 122.132 119.727 122.132ZM115.66 119.115H119.727C121.953 119.115 123.763 117.305 123.763 115.079V90.6813C123.763 88.4573 121.953 86.6477 119.727 86.6477H115.66V119.115Z" fill="black"/>
<path d="M39.7407 125.608H29.7699C23.4417 125.608 18.2937 120.458 18.2937 114.128C18.2937 113.295 18.9692 112.62 19.8021 112.62C20.6351 112.62 21.3106 113.295 21.3106 114.128C21.3106 118.795 25.1055 122.591 29.7699 122.591H38.2322V83.2025H29.7699C28.4437 83.2025 27.1721 83.5029 25.9901 84.0954C23.1041 85.5439 21.3106 88.4316 21.3106 91.6316C21.3106 92.4649 20.6351 93.14 19.8021 93.14C18.9692 93.14 18.2937 92.4649 18.2937 91.6316C18.2937 87.2834 20.7244 83.3623 24.6373 81.3987C26.2435 80.5935 27.97 80.1856 29.7699 80.1856H39.7407C40.5736 80.1856 41.2491 80.8608 41.2491 81.694V124.099C41.2491 124.932 40.5736 125.608 39.7407 125.608Z" fill="black"/>
<path d="M19.8022 122.132H14.224C10.3181 122.132 7.14038 118.955 7.14038 115.049V90.7145C7.14038 86.8239 10.306 83.6462 14.1969 83.6309H19.8022C20.6352 83.6309 21.3107 84.306 21.3107 85.1393V120.624C21.3107 121.457 20.6352 122.132 19.8022 122.132ZM14.224 86.6477C12.0126 86.6565 10.1573 88.5188 10.1573 90.7145V115.048C10.1573 117.291 11.9816 119.115 14.224 119.115H18.2938V86.6477H14.224Z" fill="black"/>
<path d="M25.3111 84.2523C24.4781 84.2523 23.8026 83.5772 23.8026 82.7439V67.9401C23.8026 67.1071 24.4781 66.4211 25.3111 66.4211C26.144 66.4211 26.8195 67.086 26.8195 67.919V82.7439C26.8195 83.5769 26.144 84.2523 25.3111 84.2523Z" fill="black"/>
<path d="M27.3462 51.2595C27.2508 51.2595 27.154 51.2504 27.0568 51.2314C26.2393 51.0724 25.7053 50.2814 25.864 49.4638C25.8718 49.4228 25.8833 49.3691 25.9017 49.306C28.2162 39.6004 32.3433 30.812 37.8386 23.8882C45.8212 13.8547 56.164 8.32959 66.9626 8.32959C77.7594 8.32959 88.101 13.8544 96.0824 23.8867C101.559 30.7504 105.685 39.5265 108.011 49.265C108.039 49.3799 108.052 49.4976 108.052 49.6156C108.052 50.4485 107.377 51.127 106.544 51.127C105.808 51.127 105.194 50.6012 105.062 49.9037C102.835 40.6189 98.9146 32.2733 93.7229 25.7668C86.3234 16.467 76.8202 11.3465 66.962 11.3465C57.1016 11.3465 47.5973 16.467 40.1999 25.765C34.9689 32.356 31.0346 40.7559 28.8238 50.0548C28.8187 50.0759 28.8136 50.0968 28.8075 50.1176C28.6383 50.7952 28.0274 51.2595 27.3462 51.2595Z" fill="black"/>
<path d="M108.61 84.0894C107.777 84.0894 107.102 83.4143 107.102 82.581V67.9853C107.102 67.1524 107.777 66.4769 108.61 66.4769C109.443 66.4769 110.118 67.1524 110.118 67.9853V82.581C110.118 83.4143 109.443 84.0894 108.61 84.0894Z" fill="black"/>
<path d="M14.1939 86.2193C13.3609 86.2193 12.6854 85.5442 12.6854 84.7109V70.8393C12.6854 66.2636 13.0248 61.6855 13.6949 57.232C13.7784 56.6871 13.8614 56.1501 13.9534 55.6158C16.5615 40.192 23.2005 26.1325 32.646 16.032C42.3145 5.69375 54.5015 0 66.9621 0C79.4287 0 91.6169 5.70069 101.281 16.0522C110.723 26.1648 117.352 40.2391 119.947 55.6831C120.048 56.2645 120.125 56.7496 120.191 57.2039C120.311 58.0284 119.739 58.7938 118.915 58.9133C118.088 59.0315 117.325 58.4611 117.206 57.6371C117.135 57.1526 117.056 56.6678 116.973 56.1887C111.795 25.3765 90.7628 3.01688 66.9621 3.01688C43.1734 3.01688 22.1307 25.3517 16.9272 56.1242C16.8373 56.6449 16.7573 57.1635 16.6774 57.6854C16.0305 61.9863 15.7023 66.4132 15.7023 70.8396V84.7112C15.7023 85.5442 15.0268 86.2193 14.1939 86.2193Z" fill="black"/>
<path d="M119.727 86.6477C118.895 86.6477 118.221 85.9747 118.219 85.1426L118.189 70.8426C118.189 66.4102 117.858 61.9721 117.207 57.648C117.083 56.8244 117.65 56.0557 118.473 55.9317C119.298 55.8077 120.065 56.3749 120.19 57.1985C120.863 61.6707 121.205 66.2603 121.205 70.8393L121.235 85.136C121.237 85.9692 120.563 86.6459 119.73 86.6477C119.729 86.6477 119.728 86.6477 119.727 86.6477Z" fill="black"/>
<path d="M110.218 69.6567C109.573 69.6567 108.924 69.5861 108.289 69.4467C103.575 68.4219 100.15 63.7798 100.15 58.4098C100.15 54.1421 102.376 50.1704 105.821 48.2914C107.2 47.5402 108.679 47.1598 110.218 47.1598C114.785 47.1598 118.778 50.6274 119.929 55.5923C120.057 56.1311 120.149 56.704 120.2 57.2875C120.201 57.2947 120.201 57.3023 120.202 57.3098C120.235 57.6682 120.252 58.0384 120.252 58.4098C120.252 64.6116 115.751 69.6567 110.218 69.6567ZM110.218 50.1767C109.189 50.1767 108.195 50.4337 107.265 50.9403C104.776 52.2979 103.168 55.23 103.168 58.4098C103.168 62.3709 105.593 65.773 108.933 66.4992C109.359 66.5927 109.79 66.6398 110.218 66.6398C114.087 66.6398 117.235 62.9477 117.235 58.4098C117.235 58.1222 117.222 57.8381 117.196 57.5644C117.195 57.553 117.195 57.5412 117.194 57.5297C117.154 57.0992 117.087 56.6793 116.992 56.2813C116.159 52.6837 113.373 50.1767 110.218 50.1767Z" fill="black"/>
<path d="M23.5733 69.6567C18.0938 69.6567 13.6357 64.6113 13.6357 58.4098C13.6357 58.0526 13.6514 57.6984 13.6834 57.3267C13.7344 56.7143 13.8321 56.1043 13.9733 55.5187C15.1327 50.6003 19.0812 47.1595 23.573 47.1595C25.1512 47.1595 26.7224 47.5895 28.1165 48.4028C31.4426 50.352 33.5076 54.1859 33.5076 58.4095C33.5076 63.6721 30.2108 68.2964 25.6686 69.4054C24.9783 69.5725 24.2745 69.6567 23.5733 69.6567ZM23.5733 50.1767C20.4877 50.1767 17.7468 52.6614 16.9081 56.2189C16.8011 56.6624 16.7283 57.1183 16.6897 57.582C16.6647 57.871 16.6526 58.1407 16.6526 58.4101C16.6526 62.9481 19.7573 66.6401 23.5733 66.6401C24.0358 66.6401 24.5013 66.5843 24.9563 66.4742C28.1617 65.6916 30.4907 62.3 30.4907 58.4101C30.4907 55.3006 28.9612 52.395 26.5938 51.0079C25.6499 50.4567 24.6329 50.1767 23.5733 50.1767Z" fill="black"/>
<path d="M110.055 143H95.3328C94.4995 143 93.8243 142.325 93.8243 141.492C93.8243 140.658 94.4995 139.983 95.3328 139.983H110.055C110.81 139.983 111.521 139.688 112.059 139.153C112.591 138.619 112.885 137.908 112.885 137.153C112.885 133.929 115.508 131.307 118.732 131.307H130.302C131.862 131.307 133.132 130.037 133.132 128.477V105.337C133.132 103.777 131.862 102.507 130.302 102.507H125.96C125.127 102.507 124.452 101.832 124.452 100.999C124.452 100.166 125.127 99.4906 125.96 99.4906H130.302C133.526 99.4906 136.148 102.113 136.148 105.337V128.477C136.148 131.701 133.526 134.323 130.302 134.323H118.732C117.172 134.323 115.902 135.593 115.902 137.153C115.902 138.711 115.295 140.179 114.192 141.286C113.081 142.393 111.613 143 110.055 143Z" fill="black"/>
<path d="M66.6724 85.6793C51.7008 85.6793 39.5205 73.499 39.5205 58.5274C39.5205 43.5559 51.7008 31.3755 66.6724 31.3755C81.6437 31.3755 93.8243 43.5559 93.8243 58.5274C93.8243 73.499 81.644 85.6793 66.6724 85.6793ZM66.6724 34.3924C53.3644 34.3924 42.5374 45.2194 42.5374 58.5274C42.5374 71.8355 53.3644 82.6624 66.6724 82.6624C79.9805 82.6624 90.8074 71.8355 90.8074 58.5274C90.8074 45.2194 79.9805 34.3924 66.6724 34.3924Z" fill="black"/>
<path d="M59.7335 68.7848C59.4644 68.7848 59.1959 68.713 58.9576 68.57C58.5033 68.2973 58.2251 67.8065 58.2251 67.2764V49.1751C58.2251 48.6595 58.4885 48.1799 58.9232 47.9029C59.3582 47.6257 59.9043 47.5904 60.3713 47.8085L78.4726 56.2557C78.9906 56.4974 79.3273 57.0109 79.3426 57.5823C79.358 58.1537 79.0488 58.6843 78.5444 58.9534L60.4434 68.6074C60.2214 68.726 59.9773 68.7848 59.7335 68.7848ZM61.242 51.5437V64.7621L74.4604 57.7123L61.242 51.5437Z" fill="black"/>
</svg>
