<svg width="150" height="150" viewBox="0 0 150 150" fill="none" xmlns="http://www.w3.org/2000/svg">
<path d="M111.226 51.5625H123.574C125.845 51.5625 127.69 52.9102 127.69 54.5654V95.1855C127.69 96.8408 125.845 98.1885 123.574 98.1885H113.276" fill="#8CAAFF"/>
<path d="M123.56 101.807H113.276V94.5557H123.56C123.765 94.5557 123.926 94.5264 124.043 94.4971V55.2393C123.911 55.21 123.75 55.1807 123.56 55.1807H111.226V47.9297H123.574C127.91 47.9297 131.309 50.8447 131.309 54.5654V95.1855C131.309 98.9062 127.896 101.807 123.56 101.807Z" fill="#333333"/>
<path d="M29.8095 37.793H107.593C109.6 37.793 111.211 39.4189 111.211 41.4111V108.472C111.211 110.479 109.585 112.09 107.593 112.09H29.8095C27.8027 112.09 26.1914 110.464 26.1914 108.472V41.4111C26.1767 39.4189 27.8027 37.793 29.8095 37.793Z" fill="white"/>
<path d="M107.593 115.723H29.8096C25.8105 115.723 22.5586 112.471 22.5586 108.472V41.4111C22.5586 37.4121 25.8105 34.1602 29.8096 34.1602H107.593C111.592 34.1602 114.844 37.4121 114.844 41.4111V108.472C114.844 112.471 111.592 115.723 107.593 115.723ZM29.8096 41.4111V108.472H107.593V41.4111H29.8096Z" fill="#333333"/>
<path d="M87.2754 76.3477L59.6191 96.0938C58.7988 96.6797 57.6709 96.4893 57.085 95.6689C56.8652 95.3613 56.748 94.9951 56.748 94.6143V55.1221C56.748 54.126 57.5537 53.3057 58.5645 53.3057C58.9453 53.3057 59.3115 53.4229 59.6191 53.6426L87.2754 73.3887C88.0957 73.9746 88.2861 75.1025 87.7002 75.9229C87.583 76.084 87.4365 76.2305 87.2754 76.3477Z" fill="#8CAAFF"/>
<path d="M58.5791 100.049C58.2715 100.049 57.9785 100.02 57.6709 99.9756C56.2354 99.7412 54.9756 98.9502 54.1406 97.7637C53.4814 96.8408 53.1299 95.7422 53.1299 94.5996V55.1221C53.1299 52.1191 55.5615 49.6875 58.5644 49.6875C59.707 49.6875 60.791 50.0391 61.7285 50.6982L89.3848 70.4443C90.5713 71.2939 91.3477 72.5391 91.582 73.9746C91.8164 75.4102 91.4941 76.8457 90.6445 78.0322C90.293 78.5303 89.8682 78.9551 89.3701 79.3066L61.7139 99.0527C60.791 99.7119 59.6924 100.049 58.5791 100.049ZM60.3662 58.6523V91.0986L83.0859 74.8828L60.3662 58.6523Z" fill="#333333"/>
</svg>
