<svg width="143" height="143" viewBox="0 0 143 143" fill="none" xmlns="http://www.w3.org/2000/svg">
<path d="M88.2092 139.658H54.7908C52.2157 139.658 50.1276 137.57 50.1276 134.995V108.26C50.1276 105.685 52.2154 103.597 54.7908 103.597H88.2092C90.7843 103.597 92.8724 105.685 92.8724 108.26V134.995C92.8724 137.57 90.7846 139.658 88.2092 139.658Z" fill="#CDD6E0"/>
<path d="M88.2092 103.597H71.5V139.658H88.2092C90.7843 139.658 92.8724 137.57 92.8724 134.995V108.26C92.8724 105.685 90.7846 103.597 88.2092 103.597Z" fill="#AEB6BD"/>
<path d="M101.577 139.658H41.4234C38.8482 139.658 36.7602 137.57 36.7602 134.995C36.7602 132.42 38.848 130.332 41.4234 130.332H101.577C104.152 130.332 106.24 132.42 106.24 134.995C106.24 137.57 104.152 139.658 101.577 139.658Z" fill="#AEB6BD"/>
<path d="M129.011 112.923H13.9891C6.27552 112.923 0 106.648 0 98.9342V17.3309C0 9.61732 6.27552 3.3418 13.9891 3.3418H129.011C136.724 3.3418 143 9.61732 143 17.3309V98.9342C143 106.648 136.724 112.923 129.011 112.923Z" fill="#40596B"/>
<path d="M129.011 3.3418H71.5V112.923H129.011C136.724 112.923 143 106.648 143 98.9342V17.3309C143 9.61732 136.724 3.3418 129.011 3.3418Z" fill="#364C5C"/>
<path d="M121.628 96.2141H21.3724C18.7973 96.2141 16.7092 94.1264 16.7092 91.551V24.7141C16.7092 22.139 18.797 20.051 21.3724 20.051H121.628C124.203 20.051 126.291 22.1387 126.291 24.7141V91.551C126.291 94.1264 124.203 96.2141 121.628 96.2141Z" fill="#F2F2F2"/>
<path d="M121.628 20.051H71.5V96.2141H121.628C124.203 96.2141 126.291 94.1264 126.291 91.551V24.7141C126.291 22.139 124.203 20.051 121.628 20.051Z" fill="#CDD6E0"/>
<path d="M80.0062 52.8815H38.7438C36.1686 52.8815 34.0806 50.7938 34.0806 48.2184C34.0806 45.6433 36.1684 43.5552 38.7438 43.5552H80.0065C82.5816 43.5552 84.6697 45.643 84.6697 48.2184C84.6694 50.7935 82.5816 52.8815 80.0062 52.8815Z" fill="#4CDBC4"/>
<path d="M80.0062 72.7099H38.7438C36.1686 72.7099 34.0806 70.6222 34.0806 68.0468C34.0806 65.4717 36.1684 63.3836 38.7438 63.3836H80.0065C82.5816 63.3836 84.6697 65.4714 84.6697 68.0468C84.6694 70.6222 82.5816 72.7099 80.0062 72.7099Z" fill="#4CDBC4"/>
<path d="M101.577 130.332H71.5V139.658H101.577C104.152 139.658 106.24 137.57 106.24 134.995C106.24 132.419 104.152 130.332 101.577 130.332Z" fill="#9BA2A8"/>
<path d="M80.0063 43.5552H71.5V52.8812H80.0063C82.5814 52.8812 84.6694 50.7935 84.6694 48.2181C84.6694 45.643 82.5817 43.5552 80.0063 43.5552Z" fill="#5AC2AD"/>
<path d="M104.918 52.8815H95.9793C93.4041 52.8815 91.3161 50.7938 91.3161 48.2184C91.3161 45.6433 93.4039 43.5552 95.9793 43.5552H104.918C107.494 43.5552 109.582 45.643 109.582 48.2184C109.582 50.7935 107.494 52.8815 104.918 52.8815Z" fill="#5AC2AD"/>
<path d="M80.0063 63.3839H71.5V72.7099H80.0063C82.5814 72.7099 84.6694 70.6222 84.6694 68.0468C84.6694 65.4717 82.5817 63.3839 80.0063 63.3839Z" fill="#5AC2AD"/>
<path d="M104.918 72.7099H95.9793C93.4041 72.7099 91.3161 70.6222 91.3161 68.0468C91.3161 65.4717 93.4039 63.3836 95.9793 63.3836H104.918C107.494 63.3836 109.582 65.4714 109.582 68.0468C109.582 70.6222 107.494 72.7099 104.918 72.7099Z" fill="#5AC2AD"/>
</svg>
