<svg width="143" height="143" viewBox="0 0 143 143" fill="none" xmlns="http://www.w3.org/2000/svg">
<path d="M138.233 122.533H4.76675C2.1341 122.533 0 120.398 0 117.766V25.2339C0 22.6015 2.1341 20.4671 4.76675 20.4671H106.913C108.177 20.4671 109.389 20.9693 110.283 21.8633L141.604 53.1839C142.498 54.0779 143 55.2901 143 56.5544V117.766C143 120.398 140.866 122.533 138.233 122.533Z" fill="#8DC3E9"/>
<path d="M141.604 53.1839L110.283 21.8636C109.389 20.9696 108.176 20.4674 106.912 20.4674H71.4999V122.533H138.233C140.865 122.533 143 120.399 143 117.766V56.5545C143 55.2904 142.498 54.0779 141.604 53.1839Z" fill="#48AEE2"/>
<path d="M142.864 118.877L96.5245 61.9524C94.5524 59.5301 90.8506 59.5334 88.8813 61.9524L71.4999 83.3046L54.1184 61.953C52.1463 59.5306 48.4448 59.5337 46.4752 61.953L0.135738 118.877C0.637075 120.973 2.51786 122.533 4.76675 122.533H138.233C140.482 122.533 142.363 120.973 142.864 118.877Z" fill="#48AEE2"/>
<path d="M26.7499 61.2556C19.0089 61.2556 12.7111 54.958 12.7111 47.217C12.7111 39.476 19.0086 33.1785 26.7499 33.1785C34.4906 33.1785 40.7887 39.476 40.7887 47.217C40.7882 54.9577 34.4906 61.2556 26.7499 61.2556Z" fill="#FFE49C"/>
<path d="M96.5245 61.9524C94.5524 59.5301 90.8506 59.5334 88.8813 61.9524L71.4999 83.3046V122.533H138.233C140.482 122.533 142.363 120.973 142.864 118.877L96.5245 61.9524Z" fill="#3797D3"/>
<path d="M110.283 21.8636C109.389 20.9696 108.177 20.4674 106.913 20.4674H105.324V53.3766C105.324 56.009 107.458 58.1434 110.091 58.1434H143V56.5545C143 55.2904 142.498 54.0777 141.604 53.1839L110.283 21.8636Z" fill="#3797D3"/>
</svg>
