<svg width="143" height="143" viewBox="0 0 143 143" fill="none" xmlns="http://www.w3.org/2000/svg">
<g clip-path="url(#clip0_512_835)">
<path d="M93.8796 48.3325L55.6559 10.1103C54.5804 9.03497 53.1224 8.43057 51.602 8.43057H5.73367C2.56701 8.43085 0 10.9984 0 14.1642V128.835C0 132.002 2.56701 134.569 5.73367 134.569H89.8256C92.992 134.569 95.5593 132.002 95.5593 128.835V52.3868C95.5593 50.866 94.9552 49.4081 93.8796 48.3325Z" fill="#D6E5F6"/>
<path d="M93.8796 48.3325L55.6559 10.1103C54.5804 9.03497 53.1225 8.43057 51.602 8.43057H45.8683V134.569H89.8256C92.992 134.569 95.5593 132.002 95.5593 128.835V52.3868C95.5593 50.866 94.9552 49.4081 93.8796 48.3325Z" fill="#A4C6EC"/>
<path d="M93.8793 47.9501L56.0377 10.1102C54.3983 8.47049 51.9318 7.98033 49.7896 8.86765C47.6471 9.7547 46.2501 11.8458 46.2501 14.1642V52.0041C46.2501 55.1705 48.8168 57.7378 51.9837 57.7378H89.825C92.1438 57.7378 94.234 56.341 95.1216 54.1983C96.0103 52.0564 95.5193 49.5902 93.8793 47.9501Z" fill="#385C8E"/>
<path d="M66.8915 96.3455H28.6678C25.5014 96.3455 22.9341 98.9131 22.9341 102.079C22.9341 105.246 25.5012 107.813 28.6678 107.813H66.8915C70.0579 107.813 72.6251 105.246 72.6251 102.079C72.6249 98.9128 70.0579 96.3455 66.8915 96.3455Z" fill="#1D3366"/>
<path d="M28.6678 84.8784H66.8915C70.0579 84.8784 72.6251 82.3117 72.6251 79.1448C72.6251 75.9786 70.0581 73.4111 66.8915 73.4111H28.6678C25.5014 73.4111 22.9341 75.9786 22.9341 79.1448C22.9341 82.3117 25.5014 84.8784 28.6678 84.8784Z" fill="#1D3366"/>
<path d="M141.321 10.1103C140.245 9.03497 138.787 8.43057 137.266 8.43057H112.76C111.239 8.43057 109.781 9.03497 108.706 10.1103C107.63 11.1858 107.027 12.644 107.027 14.1645L107.027 116.583C107.027 118.104 107.631 119.562 108.707 120.637L120.96 132.89C122.08 134.01 123.547 134.569 125.014 134.569C126.481 134.569 127.949 134.01 129.068 132.89L141.321 120.637C142.396 119.561 143 118.104 143 116.583L143.001 14.1645C143 12.6443 142.396 11.1861 141.321 10.1103Z" fill="#F6E27D"/>
<path d="M141.321 10.1103C140.245 9.03497 138.787 8.43057 137.266 8.43057H125.013V134.569C126.48 134.569 127.948 134.009 129.067 132.889L141.32 120.636C142.395 119.561 142.999 118.103 142.999 116.583L143 14.1642C143 12.6443 142.396 11.1861 141.321 10.1103Z" fill="#F2D23D"/>
</g>
<defs>
<clipPath id="clip0_512_835">
<rect width="143" height="143" fill="white"/>
</clipPath>
</defs>
</svg>
