<svg width="143" height="143" viewBox="0 0 143 143" fill="none" xmlns="http://www.w3.org/2000/svg">
<path d="M125.622 143H17.3778V0H96.5325L125.622 29.091V143Z" fill="#E1DABE"/>
<path d="M96.5325 29.091H125.622L96.5325 0V29.091Z" fill="#C3BEA4"/>
<g opacity="0.4">
<path opacity="0.4" d="M110.144 49.1861C110.144 50.069 109.428 50.7834 108.547 50.7834H34.4544C33.5729 50.7834 32.8571 50.0676 32.8571 49.1861C32.8571 48.3047 33.5729 47.5888 34.4544 47.5888H108.545C109.429 47.5888 110.144 48.3033 110.144 49.1861Z" fill="black"/>
<path opacity="0.4" d="M110.144 61.5665C110.144 62.448 109.428 63.1638 108.547 63.1638H34.4544C33.5729 63.1638 32.8571 62.448 32.8571 61.5665C32.8571 60.6837 33.5729 59.9692 34.4544 59.9692H108.545C109.429 59.9681 110.144 60.6837 110.144 61.5665Z" fill="black"/>
<path opacity="0.4" d="M110.144 73.9458C110.144 74.8287 109.428 75.5431 108.547 75.5431H34.4544C33.5729 75.5431 32.8571 74.8273 32.8571 73.9458C32.8571 73.0643 33.5729 72.3485 34.4544 72.3485H108.545C109.429 72.3485 110.144 73.0641 110.144 73.9458Z" fill="black"/>
<path opacity="0.4" d="M110.144 86.3262C110.144 87.2091 109.428 87.9235 108.547 87.9235H34.4544C33.5729 87.9235 32.8571 87.2077 32.8571 86.3262C32.8571 85.4447 33.5729 84.7289 34.4544 84.7289H108.545C109.429 84.7289 110.144 85.4445 110.144 86.3262Z" fill="black"/>
<path opacity="0.4" d="M110.144 98.7066C110.144 99.5881 109.428 100.304 108.547 100.304H34.4544C33.5729 100.304 32.8571 99.5881 32.8571 98.7066C32.8571 97.8237 33.5729 97.1093 34.4544 97.1093H108.545C109.429 97.1093 110.144 97.8237 110.144 98.7066Z" fill="black"/>
</g>
<g opacity="0.4">
<path d="M98.732 128.372H44.2691C43.741 128.372 43.3123 127.943 43.3123 127.415C43.3123 126.887 43.741 126.458 44.2691 126.458H98.732C99.2602 126.458 99.6889 126.887 99.6889 127.415C99.6889 127.943 99.2602 128.372 98.732 128.372Z" fill="black"/>
</g>
<path d="M47.0707 36.0234C53.3043 36.0234 58.3577 30.9701 58.3577 24.7365C58.3577 18.5029 53.3043 13.4495 47.0707 13.4495C40.8371 13.4495 35.7838 18.5029 35.7838 24.7365C35.7838 30.9701 40.8371 36.0234 47.0707 36.0234Z" fill="#7FADC4"/>
<path d="M47.0708 32.861C51.5578 32.861 55.1952 29.2235 55.1952 24.7365C55.1952 20.2495 51.5578 16.612 47.0708 16.612C42.5837 16.612 38.9463 20.2495 38.9463 24.7365C38.9463 29.2235 42.5837 32.861 47.0708 32.861Z" fill="#5A8DA9"/>
<g opacity="0.2">
<path d="M84.415 24.7365C84.415 25.3655 83.9047 25.8757 83.2743 25.8757H64.0746C63.4442 25.8757 62.934 25.3655 62.934 24.7365C62.934 24.1061 63.4442 23.5958 64.0746 23.5958H83.2743C83.9047 23.5961 84.415 24.1064 84.415 24.7365Z" fill="black"/>
</g>
<g opacity="0.2">
<path d="M84.415 31.1603C84.415 31.7907 83.9047 32.301 83.2743 32.301H64.0746C63.4442 32.301 62.934 31.7907 62.934 31.1603C62.934 30.5313 63.4442 30.0211 64.0746 30.0211H83.2743C83.9047 30.0211 84.415 30.5313 84.415 31.1603Z" fill="black"/>
</g>
<path d="M37.9081 127.842C43.7563 124.776 49.3163 121.255 54.9223 117.776C56.156 117.013 57.3961 116.262 58.6451 115.523C59.2601 115.154 57.3921 119.874 57.2991 120.07C56.7875 121.16 56.928 121.786 57.0911 122.891C57.1715 123.439 57.8502 123.567 58.2622 123.368C61.6187 121.749 64.5709 119.54 67.7644 117.638C67.8281 117.6 66.0892 121.332 65.7205 122.254C65.4373 122.964 66.3366 123.433 66.8916 123.155C68.9226 122.137 70.511 120.862 72.2231 119.38C73.3866 118.317 74.6331 117.358 75.9626 116.505C79.4837 114.169 75.9511 119.242 75.409 120.465C75.118 121.121 75.7677 122.055 76.5 121.556C78.8399 119.963 81.0162 118.236 83.5017 116.869C83.1112 116.569 82.7207 116.268 82.3306 115.968C81.7999 117.428 78.2338 122.715 82.0717 123.1C86.6505 123.561 91.7781 120.508 95.715 118.466C96.6286 117.993 95.8223 116.617 94.9101 117.089C92.3867 118.396 89.8132 119.575 87.1518 120.577C85.7662 121.097 84.3513 121.463 82.8716 121.587C81.477 121.702 83.567 117.226 83.8692 116.392C84.1206 115.7 83.267 115.179 82.6981 115.491C80.2129 116.858 78.0364 118.585 75.6964 120.177C76.0601 120.541 76.4237 120.905 76.7874 121.268C77.7378 119.127 78.7827 117.135 79.3376 114.848C79.4767 114.273 78.9575 113.689 78.3565 113.867C73.4358 115.332 70.5752 119.526 66.0883 121.775C66.4788 122.074 66.8693 122.375 67.2594 122.675C68.0375 120.728 70.7551 118.423 70.463 116.189C70.4183 115.851 70.2538 115.498 69.8773 115.42C66.938 114.82 63.1066 118.726 60.7962 120.222C57.1461 122.588 60.1455 118.333 60.675 117.053C61.2364 115.696 61.466 114.897 60.9096 113.518C60.7194 113.047 60.222 112.76 59.7385 113.041C52.1486 117.45 44.8855 122.383 37.1046 126.462C36.1932 126.943 36.9985 128.319 37.9081 127.842Z" fill="black"/>
</svg>
