<svg width="143" height="143" viewBox="0 0 143 143" fill="none" xmlns="http://www.w3.org/2000/svg">
<g clip-path="url(#clip0_512_892)">
<path d="M143 71.5017C143 110.993 110.991 143.001 71.5011 143C32.0091 143.001 8.95502e-08 110.993 8.95502e-08 71.5017C-0.00195499 32.0102 32.0091 0 71.5011 0C110.991 0 143 32.0113 143 71.5017Z" fill="#4FC0E8"/>
<path d="M142.909 75.0973C142.859 75.0476 142.81 74.9971 142.759 74.9471C142.621 74.8074 105.755 37.9411 105.614 37.8026C96.9093 28.9905 84.8359 23.5132 71.5 23.5132C45.0403 23.5132 23.5132 45.0403 23.5132 71.5C23.5132 84.8359 28.9907 96.909 37.8031 105.614C37.9416 105.755 74.8074 142.62 74.9474 142.759C74.9971 142.81 75.0476 142.859 75.0979 142.91C111.725 141.096 141.095 111.726 142.909 75.0973Z" fill="#3DAED9"/>
<path d="M71.5 90.2774C69.1939 90.2774 67.3273 92.1473 67.3273 94.4504C67.3273 96.7565 69.1939 98.6231 71.5 98.6231C73.8025 98.6231 75.6727 96.7565 75.6727 94.4504C75.6727 92.1476 73.8025 90.2774 71.5 90.2774Z" fill="#F4F6F9"/>
<path d="M71.5 23.5132C45.0403 23.5132 23.5132 45.0403 23.5132 71.5C23.5132 97.9598 45.0403 119.487 71.5 119.487C97.9598 119.487 119.487 97.9598 119.487 71.5C119.487 45.0403 97.9598 23.5132 71.5 23.5132ZM71.5 115.314C47.3405 115.314 27.6859 95.6597 27.6859 71.5C27.6859 47.3403 47.3405 27.6859 71.5 27.6859C95.6595 27.6859 115.314 47.3405 115.314 71.5C115.314 95.6595 95.6595 115.314 71.5 115.314Z" fill="#F4F6F9"/>
<path d="M71.5 42.2909C64.0224 42.2909 57.9385 48.5306 57.9385 56.1996C57.9385 57.3519 58.8727 58.2859 60.0248 58.2859C61.1772 58.2859 62.1112 57.3517 62.1112 56.1996C62.1112 50.8309 66.3224 46.4633 71.5 46.4633C76.6776 46.4633 80.8888 50.7267 80.8888 55.968C80.8888 61.0311 76.5011 65.4719 71.5 65.4719C70.3476 65.4719 69.4137 66.4062 69.4137 67.5583V79.8454C69.4137 80.9978 70.3479 81.9317 71.5 81.9317C72.6521 81.9317 73.5863 80.9975 73.5863 79.8454V69.4754C79.9892 68.4283 85.0615 62.6684 85.0615 55.9677C85.0615 48.4267 78.9776 42.2909 71.5 42.2909Z" fill="#F4F6F9"/>
</g>
<defs>
<clipPath id="clip0_512_892">
<rect width="143" height="143" fill="white"/>
</clipPath>
</defs>
</svg>
