<svg width="143" height="143" viewBox="0 0 143 143" fill="none" xmlns="http://www.w3.org/2000/svg">
<path d="M71.5 143C110.988 143 143 110.988 143 71.5C143 32.0116 110.988 0 71.5 0C32.0116 0 0 32.0116 0 71.5C0 110.988 32.0116 143 71.5 143Z" fill="#3A99D7"/>
<path d="M142.77 77.7616C139.593 114.317 108.931 143 71.5461 143C70.6713 143 69.7966 143 68.9218 142.954L35.0825 109.115L96.4538 31.4452L142.77 77.7616Z" fill="#2682BF"/>
<path d="M38.2592 29.8797C57.5039 29.8797 73.2495 29.8797 92.6321 29.8797C95.5787 29.8797 97.9729 32.2739 97.9729 35.2205V67.0801V74.6306V101.426V103.728C97.9729 107.319 95.0724 110.219 91.4812 110.219H38.2592C35.3126 110.219 32.9185 107.825 32.9185 104.879V35.2205C32.9185 32.2739 35.3129 29.8797 38.2592 29.8797Z" fill="#FFD630"/>
<path d="M94.5188 33.0104H36.3706V107.043H94.5188V33.0104Z" fill="#F7F7F8"/>
<path d="M103.266 111.189C113.387 111.189 121.592 102.985 121.592 92.864C121.592 82.7432 113.387 74.5387 103.266 74.5387C93.1456 74.5387 84.9412 82.7432 84.9412 92.864C84.9412 102.985 93.1456 111.189 103.266 111.189Z" fill="#E84F4F"/>
<path d="M41.1136 39.0879H48.618V47.7433H41.1136V39.0879ZM41.1136 85.5883H48.618V94.2437H41.1136V85.5883ZM41.1136 70.0728H48.618V78.7282H41.1136V70.0728ZM41.1136 54.5573H48.618V63.2127H41.1136V54.5573Z" fill="#E84F4F"/>
<path d="M52.1631 42.2646H77.8073V44.5208H52.1631V42.2646ZM52.1631 88.765H77.8073V91.0212H52.1631V88.765ZM52.1631 73.2495H77.8073V75.5057H52.1631V73.2495ZM52.1631 57.734H77.8073V59.9902H52.1631V57.734Z" fill="#999999"/>
<path d="M103.266 108.335C111.811 108.335 118.737 101.408 118.737 92.864C118.737 84.3197 111.811 77.3932 103.266 77.3932C94.7221 77.3932 87.7956 84.3197 87.7956 92.864C87.7956 101.408 94.7221 108.335 103.266 108.335Z" fill="#FFD630"/>
<path d="M90.1922 93.3689L95.1187 92.8165L100.459 97.5587C100.459 97.5587 103.038 86.7854 115.1 84.253C109.207 87.4297 105.57 93.7373 103.13 102.439C102.531 104.649 100.92 104.05 100.413 103.405C99.5847 102.346 94.0599 96.039 90.1925 93.3226V93.3689H90.1922Z" fill="white"/>
<path d="M60.3122 25.368H61.1409C60.9107 24.9999 60.7728 24.5393 60.7728 24.079V21.3165C60.7728 19.7971 62.1542 18.5543 63.8573 18.5543H67.034C68.7375 18.5543 70.1186 19.7974 70.1186 21.3165V24.0787C70.1186 24.5393 69.9806 24.9535 69.7502 25.3677H70.5789C76.2419 25.3677 80.8456 29.5574 80.8456 34.6216H49.9995C49.9995 29.5113 54.6495 25.3677 60.2661 25.3677H60.3122V25.368Z" fill="#E84F4F"/>
<path d="M65.4689 18.554H67.0801C68.7836 18.554 70.1647 19.7971 70.1647 21.3162V24.0785C70.1647 24.539 70.0267 24.9532 69.7963 25.3674H70.625C76.288 25.3674 80.8917 29.5571 80.8917 34.6214H65.4683L65.4689 18.554Z" fill="#C94545"/>
</svg>
